<svg id="图层_1" data-name="图层 1" xmlns="http://www.w3.org/2000/svg" viewBox="0 0 750.77 1127.52"><defs><style>.cls-1,.cls-28,.cls-30,.cls-44{fill:#fff;}.cls-1,.cls-10,.cls-11,.cls-12,.cls-13,.cls-14,.cls-15,.cls-17,.cls-18,.cls-19,.cls-2,.cls-20,.cls-21,.cls-23,.cls-25,.cls-26,.cls-27,.cls-3,.cls-31,.cls-32,.cls-33,.cls-34,.cls-35,.cls-36,.cls-37,.cls-38,.cls-4,.cls-40,.cls-41,.cls-42,.cls-43,.cls-44,.cls-45,.cls-46,.cls-47,.cls-48,.cls-5,.cls-6,.cls-7,.cls-8,.cls-9{stroke:#000;}.cls-1,.cls-10,.cls-11,.cls-12,.cls-13,.cls-14,.cls-15,.cls-17,.cls-18,.cls-19,.cls-2,.cls-20,.cls-21,.cls-23,.cls-24,.cls-26,.cls-27,.cls-3,.cls-31,.cls-32,.cls-33,.cls-34,.cls-35,.cls-36,.cls-37,.cls-38,.cls-4,.cls-40,.cls-42,.cls-43,.cls-44,.cls-45,.cls-46,.cls-47,.cls-48,.cls-5,.cls-6,.cls-7,.cls-8,.cls-9{stroke-miterlimit:10;}.cls-15,.cls-2,.cls-42{fill:#f6b72f;}.cls-24,.cls-25,.cls-3,.cls-40,.cls-41,.cls-47{fill:none;}.cls-25,.cls-3{stroke-linecap:round;}.cls-23,.cls-4,.cls-45{fill:#182280;}.cls-5{fill:#3c509e;}.cls-6{fill:#158059;}.cls-7{fill:#afafaf;}.cls-10,.cls-18,.cls-8{fill:#ea6234;}.cls-14,.cls-15,.cls-23,.cls-8{stroke-width:2px;}.cls-16,.cls-19,.cls-32,.cls-9{fill:#010101;}.cls-11{fill:#2098c9;}.cls-12{fill:#ec4d89;}.cls-13{fill:#59b876;}.cls-14,.cls-20{fill:#59b875;}.cls-17{fill:#e0e0e0;}.cls-18,.cls-19,.cls-20,.cls-21,.cls-42,.cls-43,.cls-44,.cls-45,.cls-46,.cls-47,.cls-48{stroke-width:0.75px;}.cls-21{fill:#ff2e49;}.cls-22{font-size:26.62px;font-family:Impact;}.cls-24{stroke:#fff;}.cls-25,.cls-41{stroke-linejoin:round;}.cls-25{stroke-width:4px;}.cls-26{fill:#fbfef9;}.cls-27{fill:#fac516;}.cls-28{font-size:114.06px;}.cls-28,.cls-33{font-family:FZCHSJW--GB1-0, FZCuHeiSongS-B-GB;}.cls-29{font-family:FZCTHFW--GB1-0, FZTanHeiT-B-GB;}.cls-30{font-size:37.92px;font-family:SimHei;}.cls-31{fill:#f2b92b;}.cls-32{stroke-width:0.25px;}.cls-33{font-size:57.91px;}.cls-34{fill:#016b43;}.cls-35,.cls-39{fill:#ef3434;}.cls-36{fill:#00c39d;}.cls-38{fill:#cfcecc;}.cls-41{stroke-dasharray:2;}.cls-43{fill:#0e2537;}.cls-46{fill:#ff1b43;}.cls-48{fill:#ff8200;}</style></defs><title>年兽图</title><rect class="cls-1" x="1.25" y="0.5" width="749.02" height="1125.02"/><circle class="cls-2" cx="644.51" cy="69.75" r="46.25"/><ellipse class="cls-1" cx="626.91" cy="58.56" rx="10.97" ry="13.88"/><ellipse class="cls-1" cx="662.12" cy="58.56" rx="10.97" ry="13.88"/><path class="cls-3" d="M610.49,76.42q33.87,36.69,67.73,0" transform="translate(0.27 2.5)"/><rect class="cls-4" x="4.05" y="706.45" width="143.95" height="145.57" transform="translate(-702.95 857.76) rotate(-90)"/><rect class="cls-5" x="80.13" y="913.27" width="131.36" height="291.15" transform="translate(-912.77 1207.15) rotate(-90)"/><rect class="cls-6" x="235.74" y="901.77" width="277.51" height="167" transform="translate(-610.51 1362.26) rotate(-90)"/><rect class="cls-7" x="1.05" y="848.4" width="143.95" height="145.57" transform="translate(-847.9 996.71) rotate(-90)"/><rect class="cls-2" x="549.94" y="924.97" width="107.96" height="291.15" transform="translate(-466.35 1676.97) rotate(-90)"/><rect class="cls-8" x="449.99" y="717.05" width="453.45" height="145.57" transform="translate(-112.86 1469.05) rotate(-90)"/><rect class="cls-9" x="-55.29" y="332.53" width="278.01" height="166.97" transform="translate(-332.03 502.23) rotate(-90)"/><rect class="cls-2" x="7.59" y="-8.35" width="278.01" height="292.71" transform="translate(8.85 287.1) rotate(-90)"/><rect class="cls-9" x="342.72" y="-50.77" width="139" height="238.55" transform="translate(343.99 483.22) rotate(-90)"/><rect class="cls-10" x="451.72" y="-20.77" width="139" height="456.55" transform="translate(313.98 731.23) rotate(-90)"/><rect class="cls-11" x="605.19" y="418.8" width="143.05" height="145.57" transform="translate(185.39 1170.8) rotate(-90)"/><rect class="cls-12" x="605.19" y="275.75" width="143.05" height="145.57" transform="translate(328.44 1027.75) rotate(-90)"/><rect class="cls-13" x="459.61" y="275.75" width="143.05" height="145.57" transform="translate(182.87 882.17) rotate(-90)"/><rect class="cls-11" x="465.61" y="420.8" width="143.05" height="145.57" transform="translate(43.82 1033.22) rotate(-90)"/><path class="cls-8" d="M90.26,381.51h595a53,53,0,0,1,53,53v488a0,0,0,0,1,0,0h-701a0,0,0,0,1,0,0v-488A53,53,0,0,1,90.26,381.51Z"/><path class="cls-5" d="M79.75,365h595a53,53,0,0,1,53,53V906a0,0,0,0,1,0,0h-701a0,0,0,0,1,0,0V418A53,53,0,0,1,79.75,365Z"/><path class="cls-1" d="M171.72,438.35h412a24,24,0,0,1,24,24V780.08a14.5,14.5,0,0,1-14.5,14.5h-431a14.5,14.5,0,0,1-14.5-14.5V462.35A24,24,0,0,1,171.72,438.35Z"/><polygon class="cls-14" points="372.62 25.75 336.53 62.62 404.53 80.6 381.67 95.88 515.5 97.39 418.56 65.49 434.07 49.52 372.62 25.75"/><polygon class="cls-15" points="364.32 19.17 328.23 56.04 396.24 74.02 373.38 89.3 507.2 90.81 410.26 58.91 425.77 42.94 364.32 19.17"/><rect class="cls-8" x="131.52" y="365.01" width="8.89" height="541.01"/><rect class="cls-8" x="615.39" y="365.01" width="8.89" height="541.01"/><circle class="cls-8" cx="668.57" cy="520.83" r="34.17"/><circle class="cls-1" cx="668.57" cy="520.83" r="26.14"/><rect class="cls-16" x="651.1" y="517.88" width="35.24" height="8.1" rx="3.51"/><circle class="cls-12" cx="669.65" cy="628.69" r="34.17"/><circle class="cls-17" cx="669.65" cy="628.69" r="26.14"/><rect class="cls-1" x="634.48" y="737.51" width="65.68" height="117.93" rx="28.44"/><circle class="cls-18" cx="85.87" cy="467.27" r="22.55"/><circle class="cls-1" cx="85.87" cy="467.27" r="17.25"/><rect class="cls-16" x="74.35" y="464.96" width="23.26" height="5.34" rx="2.31"/><rect class="cls-19" x="74.08" y="462.46" width="23.26" height="5.34" rx="2.31" transform="translate(-379.16 553.34) rotate(-90)"/><circle class="cls-20" cx="85.98" cy="543.37" r="22.55"/><circle class="cls-1" cx="85.98" cy="543.37" r="17.25"/><rect class="cls-16" x="74.45" y="541.07" width="23.26" height="5.34" rx="2.31"/><circle class="cls-16" cx="85.87" cy="535.49" r="3.23"/><circle class="cls-16" cx="85.87" cy="551.99" r="3.23"/><circle class="cls-21" cx="86.08" cy="619.48" r="22.55"/><circle class="cls-1" cx="86.08" cy="619.48" r="17.25"/><text class="cls-22" transform="translate(80.42 629.74)">?</text><circle class="cls-23" cx="86.08" cy="693.93" r="22.55"/><circle class="cls-1" cx="86.08" cy="693.93" r="17.25"/><text class="cls-22" transform="translate(82.42 704.19)">!</text><circle class="cls-1" cx="379.46" cy="858.52" r="71.79"/><circle class="cls-24" cx="379.76" cy="858.52" r="80.72"/><circle class="cls-24" cx="379.76" cy="858.52" r="92.5"/><polyline class="cls-25" points="655.26 798.52 684.26 798.52 684.26 773.02"/><polygon class="cls-9" points="38.04 64.91 70.93 17.16 90.81 25.7 39.28 99.25 38.04 64.91"/><polygon class="cls-9" points="59.6 122.98 127.68 24.16 147.56 32.7 60.85 157.32 59.6 122.98"/><path class="cls-1" d="M349.6,144.5" transform="translate(0.27 2.5)"/><rect class="cls-26" x="357.28" y="159.66" width="366.48" height="173.89"/><rect class="cls-26" x="349.18" y="165.16" width="366.48" height="173.89"/><path class="cls-26" d="M341.76,172.87H708.24a0,0,0,0,1,0,0V346.75a0,0,0,0,1,0,0H364.13a22.37,22.37,0,0,1-22.37-22.37V172.87A0,0,0,0,1,341.76,172.87Z"/><rect class="cls-5" x="550.31" y="204.78" width="147.13" height="150.23"/><rect class="cls-27" x="550.31" y="181.4" width="147.13" height="23.39"/><polygon class="cls-16" points="549.07 181.12 326.76 181.12 326.76 295.03 398.29 355.01 660.22 355.01 549.07 181.12"/><text class="cls-28" transform="translate(328.41 285.6) scale(1.02 1)">年兽<tspan class="cls-29" x="228.12" y="0">!</tspan></text><text class="cls-30" transform="translate(409.63 342.25) scale(0.94 1)">轰 炸 炸 炸</text><text class="cls-28" transform="translate(328.41 285.6) scale(1.02 1)">年兽<tspan class="cls-29" x="228.12" y="0">!</tspan></text><polygon class="cls-9" points="76.82 196.47 184.22 40.59 204.09 49.13 78.06 230.82 76.82 196.47"/><polygon class="cls-9" points="82.09 287.79 217.8 90.8 237.68 99.34 83.33 322.14 82.09 287.79"/><polygon class="cls-9" points="136.64 319.08 311.67 65.02 331.55 73.56 137.88 353.43 136.64 319.08"/><polygon class="cls-31" points="645.35 797.76 670.26 776.48 670.26 820.02 645.35 797.76"/><path class="cls-32" d="M663.19,627.07,668.5,621l-7.2-6.24a4.05,4.05,0,0,0-5.71.41h0a4.05,4.05,0,0,0,.41,5.71Z" transform="translate(0.27 2.5)"/><path class="cls-32" d="M681.81,632.5l-7.2-6.24-5.3,6.11,7.2,6.24a4.05,4.05,0,0,0,5.71-.4h0A4.05,4.05,0,0,0,681.81,632.5Z" transform="translate(0.27 2.5)"/><path class="cls-32" d="M669.57,631.46l-5.38-6.05-7.12,6.33a4,4,0,0,0-.33,5.71h0a4,4,0,0,0,5.71.34Z" transform="translate(0.27 2.5)"/><path class="cls-32" d="M677.35,613.7,670.24,620l5.38,6.05,7.12-6.33a4.05,4.05,0,0,0,.33-5.72h0A4.05,4.05,0,0,0,677.35,613.7Z" transform="translate(0.27 2.5)"/><text class="cls-33" transform="translate(320.05 878.05) scale(1.03 1)">终结</text><rect class="cls-1" x="522.07" y="1053.13" width="194.56" height="37.19"/><rect class="cls-34" x="585.08" y="1061.47" width="123.81" height="20.52"/><rect class="cls-35" x="535.33" y="1061.47" width="49.74" height="20.52"/><rect class="cls-34" x="512.12" y="1061.47" width="9.95" height="20.52"/><ellipse class="cls-1" cx="320.56" cy="1072.18" rx="25.18" ry="9.04"/><ellipse class="cls-36" cx="320.56" cy="1072.18" rx="6.02" ry="7.02"/><ellipse class="cls-37" cx="320.56" cy="1072.18" rx="3.38" ry="3.07"/><ellipse class="cls-1" cx="378.82" cy="1072.18" rx="25.18" ry="9.04"/><ellipse class="cls-36" cx="378.82" cy="1072.18" rx="6.02" ry="7.02"/><ellipse class="cls-37" cx="378.82" cy="1072.18" rx="3.38" ry="3.07"/><ellipse class="cls-1" cx="436.08" cy="1071.28" rx="25.18" ry="9.04"/><ellipse class="cls-36" cx="436.08" cy="1071.28" rx="6.02" ry="7.02"/><ellipse class="cls-37" cx="436.08" cy="1071.28" rx="3.38" ry="3.07"/><polygon class="cls-34" points="74.72 994.52 120.4 1060.02 77.58 1125.52 55.29 1125.52 98.05 1060.02 51.4 994.52 74.72 994.52"/><polygon class="cls-1" points="97.08 994.52 142.75 1060.02 97.08 1125.52 75.38 1125.52 120.4 1060.02 73.75 994.52 97.08 994.52"/><polygon class="cls-34" points="177.73 994.52 223.4 1060.02 180.58 1125.52 158.29 1125.52 201.05 1060.02 154.4 994.52 177.73 994.52"/><polygon class="cls-1" points="200.08 994.52 245.75 1060.02 200.08 1125.52 178.38 1125.52 223.4 1060.02 176.75 994.52 200.08 994.52"/><path class="cls-20" d="M242.28,833.29c12.36-1.37,21.16-12.75,20.13-25.69l-46,5.08C218.58,825.5,229.93,834.65,242.28,833.29Z" transform="translate(0.27 2.5)"/><polygon class="cls-20" points="241.01 860.47 166.21 887.33 166.53 814.58 241.01 814.58 241.01 860.47"/><polygon class="cls-19" points="234.68 855.93 174.14 877.67 174.4 818.81 234.68 818.81 234.68 855.93"/><ellipse class="cls-20" cx="171.16" cy="829.37" rx="23.18" ry="24.45"/><path class="cls-38" d="M119.26,790.35v65.5S64.59,825.06,64.59,826V758.65Z" transform="translate(0.27 2.5)"/><polygon class="cls-20" points="51.75 761.15 51.75 795.26 64.86 797.98 64.86 810.1 101.63 799.19 101.63 781.08 61.98 761.15 51.75 761.15"/><polygon class="cls-38" points="157.89 806.74 157.89 882.5 119.53 858.35 119.53 788.02 157.89 806.74"/><path class="cls-38" d="M51.49,758.65c0,.91,66.17-8.45,66.17-8.45l76.41,23.24-74.81,16.91Z" transform="translate(0.27 2.5)"/><polygon class="cls-38" points="166.21 887.33 157.89 882.5 157.89 806.74 166.53 814.58 166.21 887.33"/><polygon class="cls-38" points="166.53 814.58 119.53 792.85 194.34 775.94 237.18 790.13 166.53 814.58"/><polygon class="cls-20" points="194.34 832.7 262.75 809.75 237.18 790.13 166.53 814.58 194.34 832.7"/><path class="cls-39" d="M513.17,824.18c-1.18,0-1.74,12,1.81,13.21s4.91,1.85,4.5,3c-2.92,8.08,4.34,2.76,5.53-2,.66-2.64.58,3.22.38,8.9-.18,5.23,7.64,5.81,8.13.6.11-1.17.17-2.49.17-4,0-17.76-3.1,43.52,5,40.84,4.74-1.58,0-3.16,3.33-44,1.56-19.29,3.38,22.29,6.14,17.16s1.75-18.34,1.75-19.53,4.67,11.44,4.34,13.81c-3.14,22.63,7.25,13.63,4.73-.39-.74-4.11-.62-5.23,1.1-9.16,1.56-3.56.67-7.91.88-10.57.39-5.13,7.72,14.17,7.72,8.48,0-3.16,1-23.87-1-24.26S513.17,824.18,513.17,824.18Z" transform="translate(0.27 2.5)"/><circle class="cls-1" cx="536.66" cy="790.44" r="39.72"/><path class="cls-39" d="M551.51,821.22s-3.16,0-6.84-7.9-20,3.16-20,0,2.1-10.52,0-13.15-12.63-7.36-8.64-8.94-.83-12.1-3.46-13.68-.53-12.63,3.46-16.84l-1.91-.58a39.72,39.72,0,1,0,54.18,58C563.71,814.36,551.51,821.22,551.51,821.22Z" transform="translate(0.27 2.5)"/><ellipse class="cls-37" cx="555.13" cy="777.74" rx="8.88" ry="13.42" transform="translate(-211.31 209.97) rotate(-17.84)"/><path d="M576.68,797.34c6.74,1.79,12.66,4.63,13,12.66.21,5.6-1.65,11.39-3.92,16.43-.23.52.54,1,.78.46,2.69-6,5.23-13.61,3.63-20.24-1.55-6.4-7.42-8.64-13.21-10.17a.45.45,0,0,0-.24.86Z" transform="translate(0.27 2.5)"/><path d="M535,816.05c-3.06,6.47-6,14.33-2.13,21.13,3.93,7,12.53,8.15,19.74,8.92.58.06.57-.84,0-.9-7.15-.77-15.71-1.9-19.24-9.16-3.13-6.45-.44-13.52,2.4-19.54.25-.52-.53-1-.77-.45Z" transform="translate(0.27 2.5)"/><path d="M566.66,816.73a10.31,10.31,0,0,1,3.05,9.74c-.12.56.74.8.86.24a11.25,11.25,0,0,0-3.27-10.61c-.42-.4-1.06.23-.64.63Z" transform="translate(0.27 2.5)"/><path d="M573.29,771.5a14.47,14.47,0,0,0,7.2-4.08c.4-.41-.24-1-.64-.63a13.6,13.6,0,0,1-6.8,3.84c-.57.14-.33,1,.24.87Z" transform="translate(0.27 2.5)"/><path d="M513.87,822.56a27.62,27.62,0,0,1-5.78,12.15c-.37.45.27,1.09.64.64a28.67,28.67,0,0,0,6-12.55c.12-.56-.75-.8-.87-.24Z" transform="translate(0.27 2.5)"/><path class="cls-13" d="M259.31,407c.42,1,11.57,22.61,11.57,22.61s40.31-23.75,48.72-37.34l-10.71-19.18Z" transform="translate(0.27 2.5)"/><line class="cls-40" x1="282.07" y1="404.64" x2="292.36" y2="418.52"/><line class="cls-40" x1="271.46" y1="409.81" x2="282.68" y2="424.94"/><path class="cls-10" d="M222.25,363.82s-40.07,6.93-51,23.1c0,0,14.57-.33,15.53,1.31s-23.49,12.14-28.65,21.64c14.16-4.46,22.56-4.39,22.56-4.39l-2.63,7L205,403s-3.55,6.94-16.4,19.44c19.4-1.59,19.83.76,47.37-31.65S222.25,363.82,222.25,363.82Z" transform="translate(0.27 2.5)"/><path class="cls-13" d="M227.45,333.19c-.44-1-9-23.74-9-23.74s44.64-14,60.36-11.13l7.05,20.81Z" transform="translate(0.27 2.5)"/><line class="cls-40" x1="246.4" y1="322.26" x2="242.99" y2="305.31"/><line class="cls-40" x1="235.45" y1="326.66" x2="231.74" y2="308.19"/><path class="cls-10" d="M210.62,339.29S285.29,281.86,365.13,306c0,0-34.23,95.72-116,108Z" transform="translate(0.27 2.5)"/><circle cx="325.99" cy="329.18" r="20.11"/><path class="cls-40" d="M226.26,328.58s34.92,49.84,37.23,81.62" transform="translate(0.27 2.5)"/><circle class="cls-1" cx="325.99" cy="329.18" r="14.01"/><circle class="cls-1" cx="222.56" cy="345.49" r="5.12"/><circle class="cls-2" cx="230.21" cy="360.53" r="5.12"/><circle class="cls-1" cx="247.14" cy="391.38" r="5.12"/><circle class="cls-2" cx="253.85" cy="405.06" r="5.12"/><rect class="cls-1" x="286.63" y="364" width="10.9" height="10.9" rx="4.67" transform="translate(490.04 -55.51) rotate(63.15)"/><rect class="cls-41" x="282.3" y="359.67" width="19.57" height="19.57" rx="5.67" transform="translate(490.04 -55.51) rotate(63.15)"/><rect class="cls-1" x="268.52" y="328.23" width="10.9" height="10.9" rx="4.67" transform="translate(448.19 -58.97) rotate(63.15)"/><rect class="cls-41" x="264.19" y="323.89" width="19.57" height="19.57" rx="5.67" transform="translate(448.19 -58.97) rotate(63.15)"/><rect class="cls-13" x="226.43" y="334.46" width="17.12" height="80.81" rx="7.33" transform="translate(455.91 -6.11) rotate(62)"/><path class="cls-2" d="M246.52,369a17,17,0,0,1-1.93-8.68l-16.74,8.91c-4.93,2.62-7.13,8.13-4.91,12.31s8,5.43,12.95,2.8l16.74-8.9A16.89,16.89,0,0,1,246.52,369Z" transform="translate(0.27 2.5)"/><path class="cls-42" d="M332.57,603a37.91,37.91,0,0,1-32.38-9.68C285.08,579.6,277,572,275.9,571.45s-5.93,1-5.93,1l2.16-2.55-7.56-2.54a29.66,29.66,0,0,1-2.16-4.08c0-.51-2.16-11.72-2.16-11.72s10.26-4.07,9.72-4.58,13.49,8.15,13.49,8.66,10.79,7.64,10.79,7.64l35.62,5.1s26.45,6.62,27,7.64S332.57,603,332.57,603Z" transform="translate(0.27 2.5)"/><path class="cls-42" d="M263.94,488.56s3.68,11.05,2.1,17.9-5.26,20.53,13.69,22.11S305,500.67,305,500.67s-9.35-12.16-21-13.56a6.47,6.47,0,0,0-3.6.6C269.74,492.9,263.94,488.56,263.94,488.56Z" transform="translate(0.27 2.5)"/><ellipse class="cls-43" cx="375.83" cy="630.85" rx="25.8" ry="28.17"/><path class="cls-43" d="M264.21,543.92c-4.28,3.39-8.29,8.75-2.38,14.66,0,0,2.11-11.05,8.43-7.89S295,570.17,307.64,567l-8.95-6.32-6.95-4.05A79.23,79.23,0,0,1,281,549.1L274.9,544A8.45,8.45,0,0,0,264.21,543.92Z" transform="translate(0.27 2.5)"/><ellipse class="cls-44" cx="376.35" cy="631.73" rx="19.48" ry="23.26"/><path class="cls-18" d="M281.63,503.38l-.94,7.8c-1.3,10.93,13.6,15.73,18.7,6,.12-.22.24-.45.35-.69,6.32-13.16,23.17-19,28.43-3.68s19.48,17.37,20.54,17.9,5.26,2.1,3.68,5.26c-.94,1.9,2.27-2.26,5-5.9a10.08,10.08,0,0,0,1.25-9.89l-.56-1.36a10.1,10.1,0,0,0-11.23-6.12c-2.56.51-5.23.61-7.09-.42C335.61,510,329.45,501.19,328,499a8.32,8.32,0,0,0-.87-1.09c-2.33-2.55-11.69-12-19.46-8.34-6.92,3.26-6.6,5.88-14.87,5A10.06,10.06,0,0,0,281.63,503.38Z" transform="translate(0.27 2.5)"/><path class="cls-45" d="M335.54,474.87c-.52,1.58-16.84,33.17,14.22,37.38,0,0,8.95.53,5.79,13.16,0,0-.52,6.32,0,6.32s11.06-7.37,11.06-7.37l-.53-20.54Z" transform="translate(0.27 2.5)"/><path class="cls-42" d="M350.19,453.28c-1.6.57-7.48,5.74-2.67,16.66s15,26.43,13.9,29.88-14.44-32.18-27.8-33.33L321.86,478s39.56,10.35,42.23,50l.54,4,9.09-13.21-1.61-35.62-16-29.88Z" transform="translate(0.27 2.5)"/><circle class="cls-43" cx="324.23" cy="545.29" r="17.9"/><polygon class="cls-46" points="374.77 440.51 362.14 456.83 374.25 482.1 374.77 440.51"/><path class="cls-19" d="M354.64,579.91s-61.17-11.51-73.35-28.39c0,0-27-29.53-32.3-8.44,0,0,1.06,7.91-5.83,0-6.13-7-6-21.62,9.87-18.76a18.73,18.73,0,0,1,9.83,5.17c6.18,6.11,19.47,18.85,25.85,22,8.47,4.22,34.36,15.33,56.66,11.6,19.87-3.31,29.93-2.79,29.93-2.79" transform="translate(0.27 2.5)"/><circle class="cls-44" cx="323.7" cy="545.29" r="14.22"/><path class="cls-44" d="M332.76,601.82c-3.94.28-24.33.55-42.72-21.8a.75.75,0,0,1-.09-.8l.7-1.4a.73.73,0,0,0,0-.58l-.79-2.17a.73.73,0,0,1,1.21-.77,74.27,74.27,0,0,0,12.33,9.56c7.37,4.21,14.3,8.61,17.37,10,5.79,2.63,13.69,3.69,14.74,4.21.85.43-1,1.87-1.8,2.42a.74.74,0,0,0-.3.6h0A.74.74,0,0,1,332.76,601.82Z" transform="translate(0.27 2.5)"/><path class="cls-18" d="M339.76,696s-12.11,22.64-2.11,46.33,14.74,32.65,10,43.18c.53-1.58,23.7-33.18,11.59-56.87,0,0,.52,22.64-3.16,26.85s-4.21,5.8-4.21,5.8,9.47-29,2.1-41.6c0,0,1.06,23.69-2.1,29,0,0,1.58-22.11-4.74-30L342.39,736s-3.16-14.21,3.16-25.27l-10,9.48s10-15.8,10-23.17-1.58-6.32-1.58-6.32Z" transform="translate(0.27 2.5)"/><path class="cls-44" d="M353.45,616c-.52-.89-15.27-34.75-31.59-41.59-14.92-6.25-18,8.78-17.05,8.45,4.74-1.58,4.41-9.5,13.89-3.19,0,0-7.9-1.58-10.07,5,0,0,4-10,31.31,15.21Z" transform="translate(0.27 2.5)"/><path class="cls-42" d="M265.52,652.3c-5.87,9.51-17.38,23.7,2.63,50,0,0,4.74,9-13.16,15.27,0,0,34.22,18.43,51.07-15.27s-13.16-31.59-13.16-31.59,29-7.89,19,29c0,0,13.69-6.32,12.64-29,0,0-2.63-16.32-24.75-11.05,0,0-8.69-5.22-6.58-14.23C293.16,645.45,276.57,634.4,265.52,652.3Z" transform="translate(0.27 2.5)"/><path class="cls-18" d="M338.18,613.87s-11.59,2.1-26.86-6.32-43.7,34.22-44.22,45.28c0,0,5.26-12.11,32.11-7.9s44.23-22.64,44.23-22.64S345,616.5,338.18,613.87Z" transform="translate(0.27 2.5)"/><path class="cls-21" d="M345.55,615.45s-7.37-18.43,11.58-11.59c0,0,8.95,8.43,5.27,14.22s6.32-1.58,6.32-1.58-2.64-32.64-23.17-21.59C345.55,594.91,337.65,600.18,345.55,615.45Z" transform="translate(0.27 2.5)"/><path class="cls-20" d="M336.07,667.08s-.53,19.27,3.69,23.13,0,4.4,0,4.4,25.8,16,36.85,12.12V658.82l-26.32-4.41Z" transform="translate(0.27 2.5)"/><path class="cls-21" d="M364,574.5l2,16.73s-4.54-8.28-12.27-7.3S364,574.5,364,574.5Z" transform="translate(0.27 2.5)"/><path class="cls-20" d="M312.9,664.42s17.38,6.84,29-15.27l8.95,9s-6.31,14.74-17.37,18.43S312.9,664.42,312.9,664.42Z" transform="translate(0.27 2.5)"/><line class="cls-47" x1="380.56" y1="633.22" x2="391.62" y2="625.32"/><path class="cls-47" d="M359.24,620.71c.52,1.58,11.58,9.48,11.58,9.48" transform="translate(0.27 2.5)"/><path class="cls-48" d="M357.13,616s14.22,0,18.43,4.22V603.34H364.5Z" transform="translate(0.27 2.5)"/><polygon class="cls-46" points="376.62 527.91 369.38 535.15 374.25 546.87 376.88 546.87 376.62 527.91"/><ellipse class="cls-48" cx="365.56" cy="550.55" rx="4.48" ry="3.69"/><path class="cls-42" d="M417.19,603a37.91,37.91,0,0,0,32.38-9.68c15.12-13.76,23.21-21.4,24.29-21.91s5.94,1,5.94,1l-2.16-2.55,7.56-2.54a29.7,29.7,0,0,0,2.15-4.08c0-.51,2.16-11.72,2.16-11.72s-10.25-4.07-9.71-4.58-13.49,8.15-13.49,8.66-10.8,7.64-10.8,7.64l-35.62,5.1s-26.45,6.62-27,7.64S417.19,603,417.19,603Z" transform="translate(0.27 2.5)"/><path class="cls-42" d="M483.72,652.3c5.87,9.51,17.38,23.7-2.63,50,0,0-4.74,9,13.16,15.27,0,0-34.22,18.43-51.07-15.27s13.16-31.59,13.16-31.59-29-7.89-18.95,29c0,0-13.69-6.32-12.64-29,0,0,2.63-16.32,24.75-11.05,0,0,8.69-5.22,6.58-14.23C456.08,645.45,472.66,634.4,483.72,652.3Z" transform="translate(0.27 2.5)"/><path class="cls-44" d="M417,601.82c3.94.28,24.33.55,42.71-21.8a.73.73,0,0,0,.09-.8l-.69-1.4a.73.73,0,0,1,0-.58l.79-2.17a.73.73,0,0,0-1.21-.77,74.23,74.23,0,0,1-12.32,9.56c-7.37,4.21-14.31,8.61-17.38,10-5.79,2.63-13.69,3.69-14.74,4.21-.85.43,1,1.87,1.8,2.42a.75.75,0,0,1,.31.6h0A.73.73,0,0,0,417,601.82Z" transform="translate(0.27 2.5)"/><path class="cls-43" d="M485.56,543.92c4.27,3.39,8.28,8.75,2.37,14.66,0,0-2.1-11.05-8.42-7.89S454.76,570.17,442.13,567l8.95-6.32,6.94-4.05a78.71,78.71,0,0,0,10.76-7.54l6.08-5.07A8.47,8.47,0,0,1,485.56,543.92Z" transform="translate(0.27 2.5)"/><path class="cls-18" d="M411.59,613.87s11.58,2.1,26.85-6.32,43.7,34.22,44.23,45.28c0,0-5.27-12.11-32.12-7.9s-44.23-22.64-44.23-22.64S404.74,616.5,411.59,613.87Z" transform="translate(0.27 2.5)"/><path class="cls-44" d="M396.32,616c.51-.89,15.27-34.75,31.59-41.59,14.91-6.25,18,8.78,17,8.45-4.74-1.58-4.41-9.5-13.89-3.19,0,0,7.9-1.58,10.07,5,0,0-4-10-31.31,15.21Z" transform="translate(0.27 2.5)"/><path class="cls-19" d="M395.12,579.91s61.17-11.51,73.35-28.39c0,0,27-29.53,32.31-8.44,0,0-1.06,7.91,5.82,0,6.14-7,6-21.62-9.87-18.76a18.77,18.77,0,0,0-9.83,5.17c-6.17,6.11-19.46,18.85-25.84,22-8.48,4.22-34.36,15.33-56.67,11.6-19.86-3.31-29.92-2.79-29.92-2.79" transform="translate(0.27 2.5)"/><path class="cls-44" d="M412.08,590.7c-16.85-9.48-35.28-30-36.86-30s-20,20.53-36.86,30,4.74,32.65,4.74,32.65h64.24S428.93,600.18,412.08,590.7Z" transform="translate(0.27 2.5)"/><path class="cls-42" d="M485.83,488.56s-3.69,11.05-2.11,17.9S489,527,470,528.57s-25.27-27.9-25.27-27.9,9.35-12.16,21-13.56a6.49,6.49,0,0,1,3.6.6C480,492.9,485.83,488.56,485.83,488.56Z" transform="translate(0.27 2.5)"/><path class="cls-18" d="M468.14,503.38l.93,7.8c1.31,10.93-13.6,15.73-18.7,6-.12-.22-.23-.45-.35-.69-6.31-13.16-23.16-19-28.43-3.68s-19.48,17.37-20.53,17.9-5.27,2.1-3.69,5.26c.95,1.9-2.27-2.26-5-5.9a10.08,10.08,0,0,1-1.24-9.89l.56-1.36a10.1,10.1,0,0,1,11.22-6.12c2.56.51,5.24.61,7.1-.42,4.14-2.3,10.31-11.06,11.78-13.21a10.39,10.39,0,0,1,.87-1.09c2.33-2.55,11.69-12,19.47-8.34,6.92,3.26,6.6,5.88,14.86,5A10.08,10.08,0,0,1,468.14,503.38Z" transform="translate(0.27 2.5)"/><path class="cls-45" d="M414.22,474.87c.53,1.58,16.85,33.17-14.22,37.38,0,0-8.95.53-5.79,13.16,0,0,.53,6.32,0,6.32s-11-7.37-11-7.37l.52-20.54Z" transform="translate(0.27 2.5)"/><path class="cls-18" d="M410,696s12.11,22.64,2.1,46.33-14.74,32.65-10,43.18c-.53-1.58-23.69-33.18-11.58-56.87,0,0-.53,22.64,3.16,26.85s4.21,5.8,4.21,5.8-9.48-29-2.11-41.6c0,0-1.05,23.69,2.11,29,0,0-1.58-22.11,4.74-30L407.38,736s3.15-14.21-3.16-25.27l10,9.48s-10-15.8-10-23.17,1.58-6.32,1.58-6.32Z" transform="translate(0.27 2.5)"/><path class="cls-42" d="M399.57,453.28c1.61.57,7.49,5.74,2.68,16.66s-15,26.43-13.91,29.88,14.44-32.18,27.81-33.33L427.91,478s-39.57,10.35-42.24,50l-.53,4-9.09-13.21,1.6-35.62,16-29.88Z" transform="translate(0.27 2.5)"/><circle class="cls-43" cx="426.07" cy="545.29" r="17.9"/><path class="cls-45" d="M391.58,443.8c-3.19,13.65-13.44,17.86-16.17,18.75-2.73-.89-13-5.1-16.17-18.75-.54-2.29-12.11,5.27-4.21,19s20,35.27,15.79,54.75H380c-4.22-19.48,7.89-41.06,15.79-54.75S392.12,441.51,391.58,443.8Z" transform="translate(0.27 2.5)"/><circle class="cls-44" cx="426.6" cy="545.29" r="14.22"/><path class="cls-21" d="M406.32,614.4s7-17.49-10.16-12.07a21.8,21.8,0,0,1-2.74.65c-2.4.4-6.95,1.77-4.17,6.15,3.69,5.79-6.09,6.32-6.09,6.32s2.63-32.65,23.16-21.59C406.32,593.86,414.22,599.13,406.32,614.4Z" transform="translate(0.27 2.5)"/><path class="cls-20" d="M413.69,667.08s.53,19.27-3.68,23.13,0,4.4,0,4.4-25.8,16-36.86,12.12V658.82l26.33-4.41Z" transform="translate(0.27 2.5)"/><path class="cls-21" d="M377.56,580l-2,16.73s4.55-8.28,12.28-7.3S377.56,580,377.56,580Z" transform="translate(0.27 2.5)"/><path class="cls-20" d="M436.86,664.42s-17.37,6.84-29-15.27l-8.95,9s6.32,14.74,17.38,18.43S436.86,664.42,436.86,664.42Z" transform="translate(0.27 2.5)"/><path class="cls-43" d="M407.9,649.15s-23.95,5.4-31.81,5.63v-.37c-.15.2-.57.31-1.21.36s-1.05-.16-1.2-.36v.37c-7.86-.23-31.82-5.63-31.82-5.63s-1.58-.53,6.32,7.37c6.22,6.22,19.94,7.21,25.5,7.35v0h2.41v0c5.55-.14,19.27-1.13,25.49-7.35C409.48,648.62,407.9,649.15,407.9,649.15Z" transform="translate(0.27 2.5)"/><path class="cls-44" d="M375.11,561.22h13.12c10.53-9.64,19-24.08,8.95-28.9-8.06-3.88-17.82-14.71-21.31-18.77l0-1.56-.68.81-.68-.81,0,1.56c-3.49,4.06-13.26,14.89-21.32,18.77-10,4.82-1.58,19.26,8.95,28.9h14" transform="translate(0.27 2.5)"/><ellipse class="cls-48" cx="382.41" cy="552.66" rx="4.48" ry="3.69"/><polygon class="cls-46" points="376.09 527.39 375.83 546.34 378.46 546.34 383.33 534.63 376.09 527.39"/><polygon class="cls-46" points="368.32 534.63 373.19 546.34 375.83 546.34 375.56 527.39 368.32 534.63"/><ellipse class="cls-48" cx="369.77" cy="552.66" rx="4.48" ry="3.69"/><path class="cls-21" d="M341.86,614.4s-7-17.49,10.17-12.07a21,21,0,0,0,2.74.65c2.39.4,7,1.77,4.17,6.15-3.69,5.79,6.09,6.32,6.09,6.32s-2.63-32.65-23.17-21.59C341.86,593.86,334,599.13,341.86,614.4Z" transform="translate(0.27 2.5)"/><path class="cls-21" d="M371.68,580l2,16.73s-4.55-8.28-12.28-7.3S371.68,580,371.68,580Z" transform="translate(0.27 2.5)"/><path class="cls-48" d="M385,603.34H362.92L355.55,616s14.22,0,18.43,4.22c4.21-4.22,18.43-4.22,18.43-4.22Z" transform="translate(0.27 2.5)"/></svg>