<svg width="1358" height="922" viewBox="0 0 1358 922" fill="none" xmlns="http://www.w3.org/2000/svg">
<rect width="1358" height="922" fill="white"/>
<path d="M782.13 825.3C1067.27 825.3 1298.43 810.955 1298.43 793.26C1298.43 775.565 1067.27 761.22 782.13 761.22C496.985 761.22 265.83 775.565 265.83 793.26C265.83 810.955 496.985 825.3 782.13 825.3Z" fill="#E6E7E8"/>
<path d="M1117.19 734.17C1114.64 729.2 1112.51 723.76 1112.81 718.23C1113.34 708.17 1121.39 700.73 1128.33 693.74C1135.27 686.75 1142.05 677.26 1139.26 667.51C1136.59 658.14 1126.56 653.44 1118.06 648.9C1109.56 644.36 1100.43 636.35 1102.17 626.87C1104.66 613.29 1126.61 611.46 1128.81 597.82C1129.61 592.88 1127.38 587.93 1125.22 583.36C1117.83 567.75 1110.44 552.13 1103.05 536.52C1099.67 529.37 1096.59 519.93 1102.02 514.52C1105.68 510.88 1111.51 511.04 1116.34 509.29C1128.88 504.74 1132.45 488.88 1135.17 475.52C1137.89 462.16 1144.42 446.46 1157.79 445.65C1162.94 445.34 1168.01 447.5 1172.5 450.25C1190.3 461.17 1201.47 482.68 1200.19 503.57C1199.64 512.51 1197.27 522.47 1202.54 529.8C1205.28 533.61 1209.57 535.84 1213.38 538.52C1227.93 548.78 1236.14 567.8 1233.62 585.39C1231.9 597.39 1225.8 610.1 1231.47 620.96C1237.81 633.11 1255.56 635.4 1261.6 647.7C1266.57 657.83 1261.23 669.71 1255 678.76C1248.77 687.81 1241.21 697.2 1241.63 708.41C1241.85 714.21 1244.24 719.76 1244.94 725.53C1246.71 740.25 1237.23 753.74 1226.15 762.94C1211.84 774.83 1190.06 787.36 1170.87 780.62C1148.89 772.91 1127.95 755.19 1117.19 734.17Z" fill="#E6E7E8"/>
<path d="M1188.72 713.64C1187.33 713.64 1186.12 712.61 1185.94 711.2L1158.93 505.08C1158.73 503.54 1159.81 502.13 1161.35 501.93C1162.9 501.73 1164.3 502.81 1164.5 504.35L1191.51 710.47C1191.71 712.01 1190.63 713.42 1189.09 713.62C1188.96 713.63 1188.84 713.64 1188.72 713.64Z" fill="white"/>
<path d="M1172.32 578.04C1171.94 578.04 1171.56 577.96 1171.2 577.81C1169.78 577.19 1169.13 575.53 1169.75 574.11L1190.42 526.75C1191.04 525.33 1192.71 524.69 1194.12 525.3C1195.54 525.92 1196.19 527.58 1195.57 529L1174.9 576.36C1174.43 577.41 1173.4 578.04 1172.32 578.04Z" fill="white"/>
<path d="M1181.09 655.42C1180.35 655.42 1179.62 655.13 1179.07 654.56L1149.16 623.64C1148.08 622.52 1148.11 620.75 1149.23 619.67C1150.35 618.59 1152.13 618.63 1153.2 619.74L1183.11 650.66C1184.19 651.78 1184.16 653.55 1183.04 654.63C1182.5 655.16 1181.8 655.42 1181.09 655.42Z" fill="white"/>
<path d="M1013.59 780.53C1014.4 772.27 1014.38 764.61 1017.09 756.55C1018 753.83 1019.3 750.93 1021.88 749.69C1022.37 749.45 1022.95 749.29 1023.44 749.51C1023.87 749.7 1024.14 750.13 1024.36 750.56C1038.4 777.46 1000.72 792.59 983.53 772.36C982.47 771.11 981.47 769.68 981.32 768.04C981.05 765.04 983.91 762.45 986.9 762.1C989.89 761.75 992.82 763.11 995.29 764.82C1001.83 769.35 1006.18 776.33 1010.34 783.1C1004.54 774.38 1001.55 763.83 1001.9 753.37C1001.95 751.8 1002.48 749.79 1004.05 749.66C1004.8 749.6 1005.49 750.03 1006.09 750.49C1010.37 753.78 1012.78 759.05 1013.68 764.38C1014.57 769.7 1014.11 775.16 1013.59 780.53Z" fill="#37C1D3"/>
<path d="M1333.37 748.49C1333.63 748.5 1333.9 748.56 1334.17 748.71C1335.02 749.17 1335.33 750.22 1335.53 751.17C1337.38 759.85 1337.33 757.72 1336.41 769.1C1338.35 761.99 1337.58 763.24 1341.21 756.82C1341.92 755.57 1342.7 754.29 1343.92 753.54C1351.84 748.69 1344.17 770.17 1342.83 772.64C1337.86 781.78 1328.19 784.05 1318.82 780.68C1310.59 777.73 1302.73 771.32 1299.79 762.94C1299.52 762.18 1299.33 761.24 1299.9 760.66C1300.29 760.27 1300.9 760.21 1301.45 760.21C1306.42 760.2 1311.08 762.73 1314.87 765.93C1318.67 769.13 1321.81 773.03 1325.39 776.48C1327.92 778.92 1333.51 778.78 1337 779.2C1342.94 779.92 1345.28 777.61 1350.44 774.58C1351.56 773.92 1352.79 773.31 1354.1 773.33C1355.41 773.35 1356.78 774.16 1357.03 775.44C1357.18 776.2 1356.91 776.98 1356.58 777.68C1352.36 786.6 1340.85 785.4 1335.78 778.28C1330.94 771.49 1327.83 760.18 1330.14 752.04C1330.61 750.41 1331.91 748.46 1333.37 748.49Z" fill="#1A4A67"/>
<path d="M1177.56 717.69C1171.63 711.09 1165.81 704.46 1164.01 695.83C1163.08 691.36 1164.63 685.24 1169.18 684.98C1171.47 684.85 1173.48 686.36 1175.51 687.43C1183.32 691.57 1183.37 682.26 1181.22 677.33C1177.44 668.64 1171.66 659.97 1172.94 650.58C1173.02 649.99 1173.15 649.37 1173.56 648.93C1174.17 648.28 1175.19 648.28 1176.07 648.39C1182.08 649.18 1188.27 656.99 1194.46 654.44C1209.58 648.22 1196.5 613.49 1195.47 602.77C1195.27 600.72 1195.1 598.53 1196.09 596.73C1198.01 593.23 1203.26 593.16 1206.7 595.17C1211.98 598.26 1214.98 604.26 1220.74 606.7C1225.28 608.62 1230.45 606.42 1233.79 603.18C1243.84 593.44 1246.18 577.53 1254.1 566.23C1260.58 556.98 1278.6 542.91 1288.69 555.43C1293.31 561.16 1290.55 569.52 1288.66 576.63C1286.9 583.22 1285.46 590.97 1286.13 597.78C1286.63 602.77 1288.76 607.83 1292.85 610.73C1300.8 616.36 1315.74 616.54 1307.52 629.94C1305 634.04 1301.09 637.08 1298.08 640.84C1295.07 644.6 1292.97 649.79 1294.92 654.19C1298.47 662.22 1322.28 665.18 1313.16 677.79C1310.88 680.95 1307.25 682.79 1303.88 684.74C1287.58 694.16 1302.21 702.43 1299.06 715.38C1297.93 720.04 1294.4 723.83 1290.32 726.33C1283.76 730.35 1275.8 731.88 1268.78 734.94C1254.52 741.17 1241.77 750.44 1229.85 760.34C1221.11 767.6 1207.4 783.81 1194.51 775.98C1186.56 771.15 1191.52 757.59 1192.25 750.53C1193.68 736.8 1186.3 727.41 1177.56 717.69Z" fill="#8BDEEC"/>
<path d="M1200.18 787.01C1199.85 787.01 1199.52 786.95 1199.19 786.83C1197.74 786.28 1197 784.66 1197.55 783.21L1257.4 624.07C1257.95 622.62 1259.57 621.89 1261.02 622.43C1262.47 622.98 1263.21 624.6 1262.66 626.05L1202.81 785.19C1202.39 786.31 1201.32 787.01 1200.18 787.01Z" fill="white"/>
<path d="M1242.56 676.98C1241.65 676.98 1240.76 676.54 1240.22 675.73C1239.36 674.44 1239.71 672.69 1241 671.83L1270.12 652.41C1271.42 651.55 1273.16 651.9 1274.02 653.19C1274.88 654.48 1274.53 656.23 1273.24 657.09L1244.12 676.51C1243.64 676.83 1243.1 676.98 1242.56 676.98Z" fill="white"/>
<path d="M1221.46 734.91C1220.55 734.91 1219.66 734.47 1219.12 733.66C1218.26 732.37 1218.61 730.62 1219.9 729.76L1249.02 710.34C1250.32 709.48 1252.06 709.83 1252.92 711.12C1253.78 712.41 1253.43 714.16 1252.14 715.02L1223.02 734.44C1222.54 734.76 1222 734.91 1221.46 734.91Z" fill="white"/>
<path d="M1228.43 706.45C1227.5 706.45 1226.6 705.99 1226.06 705.16L1207.53 676.24C1206.7 674.93 1207.08 673.19 1208.38 672.36C1209.69 671.52 1211.42 671.9 1212.26 673.21L1230.79 702.13C1231.62 703.44 1231.24 705.18 1229.94 706.01C1229.47 706.3 1228.95 706.45 1228.43 706.45Z" fill="white"/>
<path d="M1134.26 778.16C1109.13 781.01 1084.82 778.2 1074.78 752.23C1071.17 742.88 1065.88 739.2 1056.48 736.55C1051.91 735.26 1047.12 733.78 1043.87 730.31C1040.63 726.84 1039.72 720.72 1043.24 717.53C1046.05 714.98 1050.32 715.23 1054.09 715.62C1060.34 716.28 1066.6 716.93 1072.85 717.59C1073.74 717.68 1074.68 717.77 1075.48 717.38C1078.14 716.09 1076.47 712.05 1074.5 709.85C1067.14 701.62 1059.56 693.58 1051.78 685.76C1048.9 682.87 1045.89 679.83 1044.71 675.92C1043.53 672.01 1044.92 666.99 1048.75 665.57C1054.06 663.59 1060.28 669.35 1065.29 666.71C1068.88 664.82 1069.32 659.81 1068.38 655.87C1067.44 651.93 1065.59 647.99 1066.3 644C1066.98 640.19 1070.19 636.97 1074 636.29C1077.8 635.6 1081.94 637.5 1083.9 640.83C1086.06 644.49 1085.92 649.72 1089.47 652.06C1092.45 654.02 1096.52 652.78 1099.48 650.8C1102.45 648.82 1105.03 646.12 1108.41 644.97C1114.14 643.01 1121.13 646.82 1122.6 652.69C1124.06 658.54 1120.69 665.28 1123.72 670.5C1126.54 675.36 1133.36 676.02 1138.87 674.91C1144.38 673.8 1149.92 671.51 1155.44 672.6C1157.34 672.97 1159.33 673.91 1160.1 675.68C1160.94 677.62 1160.07 679.86 1159.03 681.7C1155.88 687.23 1151.1 691.71 1148.1 697.32C1145.1 702.93 1144.39 710.66 1149 715.04C1151.42 717.35 1154.8 718.25 1157.86 719.62C1160.92 720.99 1164 723.29 1164.43 726.61C1165.16 732.22 1158.45 735.46 1154.99 739.93C1150.49 745.73 1151.6 753.88 1151.43 761.22C1150.94 782.11 1130.51 781.66 1114.98 777.84" fill="#1A4A67"/>
<path d="M1137.77 783.33C1136.63 783.33 1135.56 782.64 1135.14 781.51L1100.48 689.36C1099.93 687.91 1100.67 686.29 1102.12 685.74C1103.57 685.19 1105.19 685.93 1105.74 687.38L1140.4 779.53C1140.95 780.98 1140.21 782.6 1138.76 783.15C1138.43 783.28 1138.09 783.33 1137.77 783.33Z" fill="white"/>
<path d="M1113.22 719.62C1112.69 719.62 1112.14 719.47 1111.66 719.15L1094.79 707.91C1093.5 707.05 1093.15 705.3 1094.01 704.01C1094.87 702.72 1096.62 702.37 1097.91 703.23L1114.78 714.47C1116.07 715.33 1116.42 717.08 1115.56 718.37C1115.02 719.18 1114.13 719.62 1113.22 719.62Z" fill="white"/>
<path d="M1125.44 753.16C1124.91 753.16 1124.36 753.01 1123.88 752.69L1107.01 741.45C1105.72 740.59 1105.37 738.84 1106.23 737.55C1107.09 736.26 1108.83 735.91 1110.13 736.77L1127 748.01C1128.29 748.87 1128.64 750.62 1127.78 751.91C1127.24 752.72 1126.35 753.16 1125.44 753.16Z" fill="white"/>
<path d="M1121.41 736.68C1120.89 736.68 1120.37 736.54 1119.9 736.24C1118.59 735.4 1118.21 733.66 1119.05 732.36L1129.78 715.62C1130.62 714.32 1132.36 713.93 1133.66 714.77C1134.97 715.61 1135.35 717.35 1134.51 718.65L1123.78 735.39C1123.24 736.23 1122.33 736.68 1121.41 736.68Z" fill="white"/>
<path d="M628.21 95.9301C704.27 98.1001 780.9 100.23 855.95 87.7001C868.27 85.6401 883 80.8801 885.43 68.6201C888.43 53.4901 869.18 43.0901 853.81 44.3501C838.43 45.6101 823.3 52.8901 808.16 49.9401C796.65 47.7001 787.15 39.8901 777.98 32.5801C763.75 21.2401 748.19 10.1401 730.16 7.70006C712.13 5.26006 691.25 14.4801 686.57 32.0601C666.98 28.0501 649.47 17.4801 631.03 9.75006C612.59 2.02006 591.29 -2.84994 572.85 4.88006C554.41 12.6101 542.5 37.2601 553.94 53.6601C543.48 38.6501 474.68 73.1001 464.34 80.1401C448.23 91.1201 439.27 96.4101 458.65 100.83C477.46 105.12 504.86 94.9401 524.14 93.8601C558.61 91.9501 593.71 94.9501 628.21 95.9301Z" fill="#E6E7E8"/>
<path d="M1183.19 314.49C1189.04 314.74 1196.83 313.45 1197.51 307.64C1197.99 303.53 1194.25 300.26 1190.81 297.94C1184.02 293.36 1175.85 289.09 1167.98 291.37C1164.95 292.25 1162.25 294.04 1159.2 294.85C1141.51 299.51 1127.87 270 1110.39 275.39C1107.53 276.27 1105.05 278.04 1102.36 279.35C1098.98 280.99 1095.29 281.9 1091.6 282.57C1079.43 284.77 1066.82 284.49 1054.76 281.78C1049.3 280.55 1043.85 278.81 1038.25 279.02C1023.61 279.56 997.15 293.27 1012.57 308.54C1023.57 319.42 1037.64 315.27 1050.44 312.38C1091.53 303.07 1141.24 312.7 1183.19 314.49Z" fill="#E6E7E8"/>
<path d="M234.08 329.37C223.58 329.23 209.2 324.85 210.89 314.48C212.33 305.68 224.57 303.96 233.05 306.71C241.53 309.46 250.44 314.49 258.79 311.35C262.13 310.09 265.01 307.59 268.54 307.02C272.21 306.43 276.01 308.04 279.64 307.22C284.92 306.03 288.03 300.17 293.21 298.59C301.85 295.96 311.47 306.34 319.31 301.84C324.21 299.03 324.7 292.35 325.83 286.82C330.17 265.63 354.68 251.04 375.37 257.32C402.37 265.51 416.38 300.96 444.46 303.68C456.11 304.81 504.2 295.63 495.41 323.9C489.99 341.34 433.75 331.97 419.35 331.78C357.6 330.98 295.84 330.18 234.08 329.37Z" fill="#E6E7E8"/>
<path d="M1112.54 204.32C1117.58 203.53 1124.15 200.38 1122.62 195.52C1122.15 194.01 1120.91 192.86 1119.63 191.92C1101.46 178.64 1075.7 197.06 1053.79 191.94C1047.2 190.4 1041.27 186.76 1034.77 184.89C1031.01 183.81 1027.08 183.34 1023.43 181.91C1011.27 177.16 1005.13 163.23 993.8 156.73C979.38 148.46 958.3 156.6 953.17 172.4C950.37 181.02 950.99 192.12 943.31 196.93C933.89 202.83 917.42 194.28 914.08 208.19C941.13 219.51 967.94 208.85 995.64 209.42C1035.06 210.24 1073.41 210.43 1112.54 204.32Z" fill="#E6E7E8"/>
<path d="M728.92 234.82C732.91 234.2 738.11 231.7 736.91 227.85C736.53 226.65 735.56 225.74 734.54 225C720.15 214.48 699.75 229.07 682.39 225.02C677.17 223.8 672.48 220.91 667.32 219.44C664.34 218.59 661.23 218.21 658.34 217.08C648.71 213.32 643.85 202.29 634.87 197.14C623.45 190.59 606.76 197.03 602.7 209.55C600.48 216.38 600.97 225.17 594.89 228.98C587.43 233.65 574.39 226.88 571.74 237.89C593.16 246.86 614.4 238.42 636.33 238.87C667.56 239.51 697.94 239.65 728.92 234.82Z" fill="#E6E7E8"/>
<path d="M371.67 411.65C373.78 411.32 376.53 410 375.89 407.96C375.69 407.33 375.17 406.84 374.64 406.45C367.03 400.89 356.24 408.6 347.06 406.46C344.3 405.81 341.82 404.29 339.09 403.51C337.52 403.06 335.87 402.86 334.34 402.26C329.25 400.27 326.68 394.44 321.93 391.72C315.89 388.26 307.06 391.66 304.92 398.28C303.75 401.89 304.01 406.54 300.79 408.56C296.85 411.03 289.95 407.45 288.55 413.27C299.88 418.01 311.11 413.55 322.71 413.79C339.22 414.13 355.28 414.2 371.67 411.65Z" fill="#E6E7E8"/>
<path d="M195.79 182.42C191.8 181.8 186.6 179.3 187.8 175.45C188.18 174.25 189.15 173.34 190.17 172.6C204.56 162.08 224.96 176.67 242.32 172.62C247.54 171.4 252.23 168.51 257.39 167.04C260.37 166.19 263.48 165.81 266.37 164.68C276 160.92 280.86 149.89 289.84 144.74C301.26 138.19 317.95 144.63 322.01 157.15C324.23 163.98 323.74 172.77 329.82 176.58C337.28 181.25 350.32 174.48 352.97 185.49C331.55 194.46 310.31 186.02 288.38 186.47C257.15 187.11 226.78 187.25 195.79 182.42Z" fill="#E6E7E8"/>
<path d="M32.56 797.47C22.69 794.13 13.07 788.93 6.79002 780.61C0.52002 772.29 -1.73998 760.39 3.26002 751.24C8.33002 741.95 19.05 737.66 28.05 732.07C37.04 726.49 45.63 716.41 42.28 706.37C39.04 696.68 27.13 693.62 19.1 687.3C12.31 681.95 7.95002 672.92 9.96002 664.51C11.96 656.1 21.49 649.7 29.63 652.62C34.45 654.35 38.34 658.86 43.46 658.9C52.23 658.98 55.17 646.55 52.13 638.33C49.09 630.1 42.95 622.38 43.98 613.67C45.17 603.67 56.22 597.01 66.25 597.89C76.28 598.77 84.96 605.37 91.49 613.03C105.57 629.56 111.88 651.11 118.71 671.72C119.96 675.5 121.54 679.63 125.09 681.43C128.69 683.26 133.02 682.03 136.87 680.78C149.11 676.78 161.35 672.78 173.59 668.78C170.69 669.73 224.56 728.27 226.7 734.8C234.05 757.26 227.69 782.67 206.56 794.16C185.79 805.45 157.13 803.09 134.4 803.3C101.12 803.6 64.62 808.31 32.56 797.47Z" fill="#8BDEEC"/>
<path d="M150.11 723.86C146.12 712.8 143.65 700.07 149.05 689.63C156.42 675.37 191.45 660.24 174.33 639.94C166.01 630.08 147.68 629.65 144.29 617.2C140.82 604.49 156.27 594.16 160.87 583.72C166.37 571.24 166.31 557.57 163.36 544.5C156.94 516.13 135.94 493.04 121.71 468.45C118.98 463.73 116.35 458.38 117.49 453.06C118.8 446.95 124.92 442.82 131.1 441.84C141.85 440.14 161.17 444.54 167.88 454.01C174.59 463.48 172.72 478.17 181.85 485.33C190.83 492.37 204.33 487.36 215.03 491.32C242.05 501.33 226.96 552.01 252.94 564.45C257.1 566.44 261.82 567.05 266.02 568.96C275.85 573.43 281.12 584.01 285.65 593.81C290.9 605.18 296.28 617.34 294.6 629.75C291.43 653.25 263.89 672.12 270.73 694.83C272.76 701.57 277.83 707.9 276.51 714.82C274.05 727.73 253.39 728.12 247.74 739.98C241.62 752.85 255.35 766.39 248.24 779.56C242.54 790.13 222.71 796.28 211.43 794.46C182.67 789.83 158.91 748.26 150.11 723.86Z" fill="#E6E7E8"/>
<path d="M228.15 797.92C226.78 797.92 225.57 796.91 225.37 795.51L192.98 571.99C192.76 570.45 193.82 569.03 195.36 568.81C196.88 568.59 198.32 569.65 198.54 571.19L230.93 794.71C231.15 796.25 230.09 797.67 228.55 797.89C228.42 797.91 228.29 797.92 228.15 797.92Z" fill="white"/>
<path d="M208.23 650.92C207.89 650.92 207.54 650.86 207.21 650.73C205.76 650.16 205.05 648.53 205.61 647.09L225.33 596.61C225.89 595.16 227.54 594.46 228.97 595.01C230.42 595.58 231.13 597.21 230.57 598.65L210.85 649.13C210.41 650.24 209.35 650.92 208.23 650.92Z" fill="white"/>
<path d="M219.01 734.79C218.24 734.79 217.48 734.48 216.92 733.86L185.94 699.49C184.9 698.34 185 696.56 186.15 695.52C187.3 694.48 189.08 694.57 190.12 695.73L221.1 730.1C222.14 731.25 222.04 733.03 220.89 734.07C220.35 734.55 219.68 734.79 219.01 734.79Z" fill="white"/>
<path d="M124.21 921.88C122.84 921.88 121.63 920.87 121.43 919.47L89.05 695.95C88.83 694.41 89.89 692.99 91.43 692.77C92.94 692.55 94.39 693.61 94.61 695.15L126.99 918.67C127.21 920.21 126.15 921.63 124.61 921.85C124.48 921.87 124.34 921.88 124.21 921.88Z" fill="white"/>
<path d="M104.29 774.89C103.95 774.89 103.6 774.83 103.27 774.7C101.82 774.13 101.11 772.5 101.67 771.06L121.39 720.58C121.95 719.13 123.6 718.42 125.03 718.98C126.48 719.55 127.19 721.18 126.63 722.62L106.9 773.1C106.47 774.21 105.41 774.89 104.29 774.89Z" fill="white"/>
<path d="M115.07 858.76C114.3 858.76 113.54 858.45 112.98 857.83L82 823.45C80.96 822.3 81.05 820.52 82.2 819.48C83.35 818.44 85.13 818.53 86.17 819.69L117.15 854.06C118.19 855.21 118.1 856.99 116.95 858.03C116.41 858.52 115.74 858.76 115.07 858.76Z" fill="white"/>
<path d="M467.87 724.9C468.25 724.91 468.63 725.01 469.02 725.22C470.24 725.88 470.69 727.38 470.98 728.74C473.63 741.17 473.56 738.12 472.24 754.43C475.02 744.25 473.92 746.03 479.12 736.84C480.13 735.05 481.25 733.22 483 732.15C494.35 725.2 483.36 755.99 481.44 759.52C474.32 772.62 460.47 775.86 447.03 771.04C435.24 766.81 423.98 757.63 419.76 745.62C419.38 744.54 419.1 743.18 419.91 742.36C420.47 741.8 421.34 741.72 422.13 741.71C429.25 741.7 435.92 745.32 441.37 749.9C446.81 754.49 451.32 760.07 456.44 765.01C460.07 768.51 468.08 768.31 473.08 768.91C481.59 769.94 484.95 766.64 492.34 762.29C493.95 761.34 495.71 760.48 497.58 760.5C499.45 760.52 501.43 761.69 501.78 763.53C501.99 764.62 501.61 765.74 501.13 766.75C495.08 779.53 478.59 777.81 471.32 767.61C464.39 757.88 459.92 741.68 463.24 730.01C463.91 727.66 465.77 724.86 467.87 724.9Z" fill="#1A4A67"/>
<path d="M404.54 739.06C405.49 738.21 406.31 737.23 406.95 736.05C412.59 725.52 399.59 711.88 396.48 702.6C391.89 688.92 393.85 671.81 397.46 658.05C400.34 647.07 407.91 638.94 411.71 628.37C417.62 611.9 400.29 588.17 387.13 579.69C357.63 560.69 366.31 608.05 353.88 615.94C350.04 618.38 345.11 617.88 340.61 618.63C324.33 621.37 335.51 638.3 330.61 648.13C328.82 651.72 325.22 653.98 322.43 656.87C308.96 670.87 340.5 677.79 311.93 690.32C304.6 693.54 296.82 699.94 301.41 704.97C302.84 706.54 305.2 707.5 307.15 708.73C315.91 714.27 315.28 724.15 313.97 732.65C312.55 741.81 320.12 748.42 323.87 755.91C328.1 764.35 325.43 775.96 338.68 776.34C347.76 776.6 354.91 770.03 362.14 765.53C370.07 760.6 378.27 755.89 384.91 749.22C389.96 744.3 399.31 743.71 404.54 739.06Z" fill="#37C1D3"/>
<path fill-rule="evenodd" clip-rule="evenodd" d="M338.61 779.14C338.81 779.15 339.01 779.15 339.2 779.15C346.986 779.15 353.414 774.812 359.129 770.955L359.27 770.86L359.58 770.649C360.945 769.72 362.303 768.796 363.66 767.95L366.43 766.24C373.51 761.88 380.84 757.36 386.91 751.26C389.071 749.159 392.401 747.921 395.934 746.607L395.98 746.59C399.68 745.22 403.5 743.8 406.43 741.19C407.68 740.09 408.69 738.82 409.45 737.41C414.11 728.71 408.35 718.72 403.72 710.7C401.81 707.4 400.02 704.29 399.16 701.73C394.16 686.83 397.66 668.43 400.2 658.79C401.69 653.12 404.51 648.24 407.51 643.08L407.569 642.977C410.041 638.709 412.594 634.3 414.37 629.34C420.67 611.77 403.36 586.81 388.67 577.35C381.42 572.68 375.61 571.36 370.92 573.3C363.492 576.369 361.281 586.535 359.142 596.372L359.14 596.38C357.54 603.74 355.88 611.36 352.39 613.58C350.292 614.903 347.502 615.137 344.55 615.386L344.5 615.39C343.04 615.51 341.58 615.63 340.16 615.87C327.367 618.019 328.229 628.169 328.859 635.587L328.86 635.6C329.21 639.7 329.57 643.94 328.11 646.88C327.131 648.837 325.315 650.446 323.398 652.143L323.39 652.15C323.326 652.207 323.263 652.264 323.199 652.32C322.243 653.173 321.292 654.021 320.42 654.93C313.084 662.546 316.846 669.192 319.336 673.593L319.34 673.6C320.99 676.52 321.95 678.42 321.39 680.11C320.85 681.71 318.59 684.34 310.81 687.75C305.06 690.28 298.52 694.85 297.4 700.11C296.88 702.57 297.55 704.91 299.34 706.87C300.634 708.294 302.295 709.212 303.899 710.098L303.92 710.11C304.51 710.43 305.1 710.76 305.66 711.11C312.32 715.32 312.69 722.59 311.2 732.22C310.021 739.787 314.047 745.775 317.596 751.053L317.6 751.06C319.01 753.15 320.35 755.14 321.36 757.16C322.44 759.33 323.05 761.9 323.64 764.39L323.645 764.409C325.174 770.836 327.071 778.81 338.61 779.14ZM373.06 578.47C373.76 578.18 374.54 578.04 375.41 578.04C378.05 578.04 381.47 579.38 385.62 582.03C398.62 590.41 414.19 613.14 409.07 627.4C407.464 631.881 405.151 635.88 402.705 640.108L402.64 640.22C399.58 645.48 396.43 650.92 394.75 657.32C392.06 667.56 388.35 687.18 393.82 703.47C394.848 706.565 396.774 709.899 398.82 713.442L398.83 713.46C402.97 720.63 407.66 728.76 404.48 734.7C404.03 735.53 403.44 736.27 402.68 736.94C400.54 738.85 397.37 740.03 394.01 741.27C390.06 742.73 385.99 744.24 382.94 747.22C377.31 752.88 370.27 757.22 363.46 761.41L360.68 763.13C359.15 764.08 357.62 765.12 356.08 766.17C350.41 770.03 345.04 773.62 338.78 773.51C331.85 773.31 330.76 769.98 329.12 763.08L329.089 762.95C328.429 760.19 327.749 757.347 326.39 754.63C325.22 752.29 323.72 750.06 322.27 747.91L322.246 747.874C318.995 743.027 315.922 738.447 316.76 733.06C317.75 726.67 319.8 713.38 308.66 706.34C308.02 705.93 307.33 705.55 306.64 705.17L306.586 705.14C305.336 704.441 304.17 703.79 303.5 703.06C302.81 702.3 302.8 701.75 302.91 701.26C303.44 698.76 307.72 695.24 313.08 692.89C321.17 689.34 325.38 685.95 326.73 681.88C328.127 677.708 326.068 674.064 324.25 670.848L324.24 670.83C321.71 666.37 320.04 663.42 324.47 658.82C325.31 657.96 326.21 657.16 327.12 656.36L327.165 656.32C329.391 654.343 331.69 652.301 333.14 649.38C335.31 645.03 334.88 639.99 334.46 635.11C333.75 626.73 333.73 622.64 341.09 621.4C342.256 621.207 343.448 621.107 344.642 621.007C344.748 620.998 344.854 620.989 344.96 620.98C348.48 620.69 352.12 620.39 355.4 618.31C360.87 614.83 362.7 606.44 364.63 597.55L364.634 597.532C366.463 589.118 368.353 580.419 373.06 578.47Z" fill="#1A4A67"/>
<path d="M337.19 785.78C336.95 785.78 336.7 785.75 336.46 785.68C334.96 785.28 334.07 783.74 334.48 782.24L372.77 640.05C373.18 638.55 374.72 637.66 376.22 638.07C377.72 638.47 378.61 640.01 378.2 641.51L339.9 783.7C339.56 784.95 338.43 785.78 337.19 785.78Z" fill="white"/>
<path d="M363.11 687.02C361.87 687.02 360.74 686.2 360.4 684.95L352.99 657.84C352.58 656.34 353.46 654.8 354.96 654.39C356.44 653.99 358 654.86 358.41 656.36L365.82 683.47C366.23 684.97 365.35 686.51 363.85 686.92C363.6 686.99 363.35 687.02 363.11 687.02Z" fill="white"/>
<path d="M348.8 738.48C347.56 738.48 346.43 737.66 346.09 736.41L338.68 709.3C338.27 707.8 339.15 706.26 340.65 705.85C342.13 705.44 343.69 706.32 344.1 707.82L351.51 734.93C351.92 736.43 351.04 737.97 349.54 738.38C349.29 738.45 349.04 738.48 348.8 738.48Z" fill="white"/>
<path d="M357.72 714.72C356.72 714.72 355.76 714.19 355.25 713.26C354.51 711.9 355.01 710.19 356.37 709.45L379.61 696.77C380.98 696.02 382.68 696.53 383.42 697.89C384.16 699.25 383.66 700.96 382.3 701.7L359.06 714.38C358.63 714.61 358.17 714.72 357.72 714.72Z" fill="white"/>
<path d="M561.87 430.79L572.94 428.49L565.09 437.54L561.87 430.79Z" fill="#1A4A67"/>
<path d="M519.98 460.82C516.91 464.54 513.75 468.97 509.93 472.27C506.14 475.54 499.04 476.19 496.15 479.73C505.02 489.41 526.91 482.54 536.48 477.52C549.25 470.83 559.64 459.34 564.16 445.57C566.57 438.22 566.95 429.01 561.14 423.9C558.32 421.42 554.54 420.4 550.87 419.58C545.13 418.3 538.07 416.92 532.39 419.22C523.75 422.72 533.18 422.2 535.11 426.17C537.39 430.86 532.65 439.79 530.6 443.79C527.54 449.75 524.27 455.64 519.98 460.82Z" fill="#8BDEEC"/>
<path d="M553.82 430.8C555.096 430.8 556.13 429.766 556.13 428.49C556.13 427.214 555.096 426.18 553.82 426.18C552.544 426.18 551.51 427.214 551.51 428.49C551.51 429.766 552.544 430.8 553.82 430.8Z" fill="#1A4A67"/>
<path d="M515.14 432.26C509.19 430.1 502.52 428.92 498.01 424.47C495.53 422.02 493.46 418.47 489.99 418.18C489.46 418.13 488.88 418.19 488.49 418.56C488.01 419.02 488.01 419.77 488.04 420.43C488.24 424.39 488.46 428.45 490.03 432.09C491.6 435.73 494.84 438.92 498.79 439.26C499.27 439.3 499.79 439.31 500.2 439.56C501.39 440.29 500.74 442.2 499.67 443.11C498.6 444.01 497.15 444.73 496.85 446.09C496.53 447.53 497.79 448.94 499.21 449.34C500.63 449.74 502.14 449.39 503.58 449.04C503.05 451.56 502.94 454.93 505.32 455.91C507.39 456.77 510.22 455.09 511.82 456.65C512.42 457.23 512.62 458.1 512.95 458.86C514.04 461.34 516.72 462.85 519.42 463.12C522.11 463.39 524.81 462.59 527.28 461.49C533.65 458.66 540.65 452.37 535.55 445.83C530.76 439.69 522.32 434.86 515.14 432.26Z" fill="#37C1D3"/>
<path d="M875.83 367.8L867.61 366.09L873.44 372.81L875.83 367.8Z" fill="#1A4A67"/>
<path d="M906.91 390.09C909.19 392.85 911.53 396.14 914.36 398.59C917.17 401.02 922.44 401.5 924.59 404.12C918.01 411.31 901.77 406.21 894.66 402.48C885.19 397.51 877.48 388.99 874.12 378.77C872.33 373.32 872.05 366.48 876.36 362.69C878.45 360.85 881.26 360.1 883.98 359.49C888.24 358.54 893.48 357.51 897.69 359.22C904.1 361.82 897.11 361.43 895.67 364.38C893.98 367.86 897.49 374.49 899.02 377.45C901.3 381.87 903.73 386.24 906.91 390.09Z" fill="#8BDEEC"/>
<path d="M881.8 367.8C882.744 367.8 883.51 367.034 883.51 366.09C883.51 365.146 882.744 364.38 881.8 364.38C880.856 364.38 880.09 365.146 880.09 366.09C880.09 367.034 880.856 367.8 881.8 367.8Z" fill="#1A4A67"/>
<path d="M910.5 368.89C914.92 367.29 919.87 366.41 923.21 363.11C925.05 361.29 926.58 358.66 929.16 358.44C929.55 358.41 929.99 358.45 930.27 358.72C930.62 359.06 930.63 359.62 930.6 360.11C930.45 363.05 930.29 366.06 929.12 368.76C927.95 371.46 925.55 373.83 922.62 374.08C922.26 374.11 921.88 374.12 921.57 374.31C920.68 374.85 921.17 376.27 921.97 376.94C922.76 377.61 923.84 378.14 924.06 379.15C924.3 380.22 923.37 381.27 922.31 381.56C921.25 381.85 920.13 381.6 919.07 381.34C919.46 383.21 919.55 385.71 917.78 386.44C916.24 387.08 914.15 385.83 912.95 386.99C912.51 387.42 912.36 388.06 912.11 388.63C911.3 390.47 909.31 391.59 907.31 391.79C905.31 391.99 903.31 391.4 901.48 390.58C896.75 388.48 891.56 383.81 895.35 378.96C898.91 374.41 905.17 370.82 910.5 368.89Z" fill="#37C1D3"/>
<path d="M943.56 483.46L931.16 485.56L942.96 491.75L943.56 483.46Z" fill="#1A4A67"/>
<path d="M999.1 497.57C1003.78 500.17 1008.85 503.48 1014.14 505.35C1019.39 507.2 1027.01 504.99 1031.43 507.48C1026.18 521.1 1000.72 522.86 988.78 521.55C972.85 519.8 957.43 512.12 947.16 499.69C941.68 493.06 937.55 483.67 941.5 476.03C943.42 472.32 946.92 469.73 950.38 467.4C955.8 463.74 962.55 459.45 969.37 459.53C979.74 459.65 969.76 462.93 969.37 467.83C968.91 473.61 977.44 480.94 981.19 484.24C986.79 489.17 992.57 493.94 999.1 497.57Z" fill="#8BDEEC"/>
<path d="M950.96 480.38C952.379 480.38 953.53 479.229 953.53 477.81C953.53 476.391 952.379 475.24 950.96 475.24C949.541 475.24 948.39 476.391 948.39 477.81C948.39 479.229 949.541 480.38 950.96 480.38Z" fill="#1A4A67"/>
<path d="M992.54 466.03C997.83 461.38 1004.26 457.45 1007.11 451.02C1008.68 447.48 1009.39 442.97 1012.86 441.25C1013.39 440.99 1014.02 440.81 1014.57 441.04C1015.25 441.32 1015.55 442.1 1015.79 442.79C1017.19 446.97 1018.61 451.26 1018.46 455.66C1018.31 460.07 1016.24 464.68 1012.3 466.64C1011.82 466.88 1011.29 467.1 1010.96 467.53C1010.02 468.77 1011.48 470.48 1012.95 470.98C1014.42 471.48 1016.21 471.63 1017.08 472.92C1018 474.28 1017.27 476.25 1015.95 477.24C1014.64 478.23 1012.93 478.48 1011.3 478.71C1012.87 481.11 1014.35 484.54 1012.29 486.53C1010.49 488.26 1006.89 487.67 1005.86 489.94C1005.48 490.79 1005.62 491.76 1005.58 492.69C1005.46 495.7 1003.29 498.36 1000.61 499.73C997.93 501.1 994.82 501.37 991.81 501.23C984.06 500.88 974.27 497.21 976.9 488.37C979.38 480.06 986.15 471.64 992.54 466.03Z" fill="#37C1D3"/>
<path d="M743.67 778.49C741.58 777.37 739.91 778.81 735.75 780.08C726.16 783.01 716.29 785.01 706.32 786.03C702.56 786.42 698.46 786.8 695.71 789.39C693.01 791.93 692.36 795.88 691.21 799.4C686.6 813.49 673.06 822.32 663.28 833.48C662.38 834.5 661.47 835.91 662.11 837.11C662.56 837.96 663.61 838.28 664.57 838.42C670.33 839.27 676.02 836.68 681.09 833.8C688.8 829.43 696.04 824.25 702.67 818.38C707.02 814.52 711.22 810.28 716.56 807.97C719.31 806.78 722.26 806.14 725.16 805.4C734.87 802.91 744.26 799.14 752.99 794.22C750.86 790.06 749 783.94 745.94 780.45C745.06 779.48 744.34 778.85 743.67 778.49Z" fill="white"/>
<path fill-rule="evenodd" clip-rule="evenodd" d="M664.15 841.21C665.05 841.34 665.95 841.4 666.84 841.4C672.53 841.4 677.88 838.86 682.48 836.24C690.34 831.78 697.76 826.47 704.53 820.47L706.46 818.73L706.47 818.721C710.106 815.435 713.554 812.318 717.67 810.53C719.76 809.63 722.01 809.06 724.4 808.47L725.84 808.11C735.8 805.56 745.4 801.71 754.36 796.66L756.71 795.34L755.48 792.94C754.836 791.692 754.221 790.243 753.588 788.753L753.54 788.64C752 785.03 750.41 781.31 748.04 778.6C746.95 777.36 745.99 776.54 745 776.01C742.4 774.61 740.17 775.46 737.83 776.37C737.03 776.69 736.08 777.05 734.94 777.4C725.54 780.28 715.82 782.24 705.87 783.26L705.85 783.262C701.785 783.682 697.194 784.155 693.79 787.36C691.094 789.907 690.08 793.364 689.184 796.423L689.17 796.47C689.121 796.634 689.072 796.797 689.024 796.96C688.865 797.493 688.709 798.019 688.54 798.54C685.53 807.73 678.39 814.58 670.82 821.83L670.721 821.926C667.492 825.026 664.159 828.225 661.17 831.63C658.51 834.66 658.86 837 659.62 838.43C660.42 839.95 661.95 840.88 664.15 841.21ZM679.69 831.37C675.27 833.88 670.1 836.33 665.12 835.67C665.19 835.57 665.28 835.46 665.4 835.34C668.25 832.08 671.53 828.93 674.71 825.89C682.44 818.48 690.44 810.81 693.88 800.28C694.12 799.55 694.34 798.8 694.56 798.04C695.32 795.42 696.04 792.95 697.63 791.45C699.645 789.554 703.084 789.202 706.586 788.843L706.61 788.84C716.74 787.8 726.82 785.76 736.58 782.78C737.87 782.38 738.94 781.97 739.85 781.62C741.65 780.93 742.06 780.82 742.35 780.97C742.6 781.1 743.05 781.44 743.81 782.31C745.59 784.34 747 787.65 748.36 790.85C748.651 791.553 748.95 792.238 749.241 792.906L749.3 793.04C741.43 797.24 733.08 800.48 724.44 802.69L723.03 803.04C720.52 803.66 717.93 804.31 715.42 805.4C710.45 807.56 706.5 811.13 702.68 814.59L700.79 816.29C694.31 822.03 687.22 827.1 679.69 831.37Z" fill="#1A4A67"/>
<path d="M771.93 781.5C774.02 780.38 775.69 781.82 779.85 783.1C789.44 786.03 799.31 788.03 809.28 789.05C813.04 789.44 817.14 789.82 819.89 792.41C822.59 794.95 823.24 798.9 824.39 802.42C829 816.51 842.54 825.35 852.32 836.5C853.22 837.52 854.13 838.93 853.49 840.13C853.04 840.98 851.99 841.3 851.03 841.44C845.27 842.29 839.58 839.7 834.51 836.82C826.8 832.45 819.56 827.27 812.93 821.4C808.58 817.54 804.38 813.3 799.04 810.99C796.29 809.8 793.34 809.16 790.44 808.42C780.73 805.93 771.34 802.16 762.61 797.24C764.74 793.08 766.6 786.96 769.66 783.47C770.54 782.49 771.26 781.86 771.93 781.5Z" fill="white"/>
<path fill-rule="evenodd" clip-rule="evenodd" d="M833.14 839.27C837.72 841.87 843.07 844.42 848.76 844.42C849.65 844.42 850.55 844.36 851.44 844.22C853.64 843.9 855.16 842.97 855.97 841.45C856.73 840.02 857.08 837.68 854.43 834.65C851.441 831.245 848.109 828.046 844.88 824.946L844.78 824.85C837.21 817.6 830.06 810.75 827.06 801.55C826.84 800.86 826.63 800.16 826.43 799.46C825.54 796.39 824.53 792.92 821.82 790.37C818.42 787.16 813.8 786.69 809.56 786.26C799.78 785.25 790.06 783.29 780.67 780.41C779.603 780.082 778.702 779.737 777.927 779.44C777.874 779.42 777.822 779.4 777.77 779.38C775.43 778.48 773.21 777.63 770.61 779.02C769.62 779.54 768.66 780.37 767.57 781.61C765.211 784.296 763.638 787.983 762.112 791.563L762.07 791.66C761.42 793.19 760.79 794.67 760.13 795.96L758.9 798.36L761.25 799.68C770.21 804.73 779.81 808.58 789.77 811.13L791.22 811.5C793.6 812.09 795.86 812.66 797.94 813.56C802.058 815.349 805.497 818.458 809.136 821.746L809.14 821.75L811.08 823.5C817.86 829.51 825.28 834.81 833.14 839.27ZM791.16 805.7C782.52 803.49 774.17 800.24 766.3 796.05C766.417 795.783 766.533 795.513 766.651 795.242C766.845 794.792 767.04 794.339 767.24 793.89C767.265 793.833 767.289 793.775 767.314 793.717C768.66 790.572 770.042 787.343 771.8 785.34C772.55 784.48 773 784.14 773.25 784.01C773.54 783.85 773.96 783.96 775.75 784.65C776.66 785 777.73 785.41 779.02 785.81C788.75 788.79 798.83 790.83 809.15 791.89C812.49 792.22 815.94 792.58 817.96 794.48C819.55 795.98 820.27 798.44 821.03 801.05C821.094 801.261 821.157 801.473 821.22 801.683C821.384 802.231 821.547 802.776 821.72 803.31C825.16 813.84 833.15 821.51 840.89 828.92C844.07 831.96 847.35 835.11 850.2 838.36C850.31 838.48 850.4 838.59 850.48 838.69C845.51 839.37 840.33 836.89 835.91 834.39C828.38 830.13 821.28 825.05 814.81 819.31L812.91 817.6L812.853 817.549C809.051 814.115 805.125 810.569 800.18 808.42C797.67 807.33 795.08 806.68 792.58 806.06L791.16 805.7Z" fill="#1A4A67"/>
<path d="M756.17 802.86C792.15 780.71 835.46 775.06 876.21 763.9C916.96 752.74 959.36 732.62 977.38 694.4C981.94 684.74 983.9 671.43 975.47 664.87C972.22 662.34 968.04 661.41 963.98 660.72C920.22 653.32 875.61 667.03 835.03 684.99C825.91 689.03 816.85 693.3 807.29 696.14C789.24 701.5 770.1 701.54 751.28 701.54C728.91 701.54 706.54 701.55 684.18 701.24C669.75 701.04 655.05 700.67 641.37 696.06C632.35 693.02 624.05 688.22 615.4 684.25C594.86 674.81 572.19 670.04 549.59 670.39C540.43 670.53 530.98 671.6 522.99 676.08C515 680.56 508.76 689.15 509.36 698.29C510.17 710.59 522.03 718.81 532.83 724.73C569.52 744.85 608.47 760.57 647.92 774.55C662.62 779.76 688.58 785.35 704.15 786.28C719.33 787.18 725.78 782.78 739.52 780.5C752.36 778.37 750.25 793 756.17 802.86Z" fill="white"/>
<path fill-rule="evenodd" clip-rule="evenodd" d="M753.76 804.3L755.22 806.74L757.63 805.24C784.155 788.912 815.437 781.52 845.699 774.369L845.82 774.34L846.023 774.292C856.21 771.887 866.738 769.401 876.95 766.6C929.89 752.1 964.54 728.21 979.92 695.59C984.83 685.19 987.06 670.32 977.2 662.64C973.34 659.63 968.59 658.63 964.45 657.93C915.66 649.69 866.56 667.95 833.89 682.41L830.13 684.09C822.48 687.51 814.56 691.05 806.5 693.44C788.7 698.72 769.67 698.73 751.28 698.73C729.28 698.74 706.56 698.74 684.22 698.43L684.208 698.43C671.66 698.26 656.056 698.049 642.27 693.4C636.32 691.39 630.51 688.51 624.89 685.72L624.89 685.72C622.13 684.35 619.37 682.98 616.58 681.7C595.7 672.1 572.53 667.2 549.55 667.58C541.34 667.71 530.74 668.51 521.62 673.63C511.84 679.12 505.93 688.87 506.57 698.48C507.49 712.33 520.38 721.1 531.5 727.2C563.45 744.71 600.15 760.6 647 777.2C662.63 782.74 688.73 788.18 704 789.08C714.34 789.69 720.93 787.92 727.89 786.05C731.55 785.06 735.34 784.04 739.99 783.27C745.71 782.32 747.08 785.12 749.49 793.36L749.491 793.363C750.511 796.852 751.671 800.821 753.76 804.3ZM754.874 791.769C752.985 785.333 750.68 777.48 741.92 777.48C741.04 777.48 740.09 777.56 739.07 777.72C734.223 778.518 730.346 779.559 726.599 780.565L726.43 780.61C719.63 782.44 713.77 784.01 704.32 783.46C689.74 782.6 663.82 777.19 648.86 771.89C602.3 755.4 565.86 739.63 534.19 722.26C524.33 716.85 512.91 709.22 512.17 698.1C511.61 689.62 517.89 682.16 524.37 678.53C532.39 674.03 542.09 673.32 549.64 673.2C571.81 672.82 594.11 677.55 614.23 686.8C616.731 687.95 619.207 689.175 621.682 690.4C621.918 690.516 622.154 690.633 622.39 690.75L622.49 690.8C628.249 693.654 634.196 696.602 640.47 698.72C655.077 703.646 671.172 703.87 684.106 704.05L684.14 704.05C705.852 704.351 727.893 704.35 749.279 704.35L751.28 704.35C770.08 704.35 789.51 704.34 808.1 698.83C816.52 696.33 824.61 692.72 832.43 689.23L836.18 687.56C868.18 673.4 916.21 655.48 963.52 663.49C966.98 664.08 970.92 664.89 973.75 667.09C980.53 672.37 979.18 684.01 974.84 693.21C960.19 724.28 926.76 747.15 875.47 761.2C865.361 763.971 854.886 766.446 844.752 768.84L844.54 768.89L844.504 768.899C814.755 775.926 784.019 783.187 757.3 798.91C756.3 796.65 755.58 794.19 754.88 791.79L754.874 791.769Z" fill="#1A4A67"/>
<path d="M814.48 744.44C844.74 733.84 874.99 723.25 905.25 712.65C885.94 713.29 866.39 713.97 847.84 719.36C828.07 725.11 810.23 735.98 791.31 744.11C772.39 752.25 751.03 757.67 731.29 751.82C724.12 749.69 717.52 745.99 710.48 743.46C639.54 718.01 621.41 698.64 597.56 718.01C613.78 711.19 704.52 757.2 732.84 775.39C748.89 785.7 756.09 772.39 769.81 763.94C783.67 755.4 799.17 749.8 814.48 744.44Z" fill="#1A4A67"/>
<path d="M738.47 502.25C738.47 502.25 699.8 565.07 668.86 619.46C661.61 632.21 652.08 643.56 640.95 652.57C632.75 659.2 623.26 663.65 613.76 667.65C610.2 669.15 604.97 672.55 601.12 672.6C596.39 672.67 593.25 668.99 589 667.46C587.17 666.8 585.18 666.66 583.28 667.06C573.03 669.19 587.05 678.08 590.03 676.31C585.48 679 580.26 679.99 575.3 681.62C570.34 683.25 565.28 685.79 562.5 690.49C561.19 692.7 560.6 695.91 562.37 697.71C563.37 698.72 564.82 698.97 566.18 699.15C571.56 699.87 576.98 700.31 582.41 700.47C595.74 700.87 599.64 693.8 610.29 686.24C621.29 678.43 641.19 670.02 652.18 662.23C663.76 654.02 677.27 644.29 684.01 630.84C697.18 604.57 741.93 522.81 741.93 522.81L738.47 502.25Z" fill="white"/>
<path fill-rule="evenodd" clip-rule="evenodd" d="M582.349 703.271C582.719 703.281 583.08 703.29 583.44 703.29C593.727 703.29 599.007 698.93 605.079 693.914L605.12 693.88L605.155 693.851C607.224 692.13 609.365 690.35 611.93 688.53C617.29 684.72 625.08 680.63 632.61 676.68L632.869 676.544C640.438 672.566 648.244 668.465 653.81 664.52L653.815 664.516C665.194 656.447 679.351 646.408 686.53 632.09C699.52 606.17 743.95 524.98 744.4 524.16L744.86 523.31L740.01 494.42L736.08 500.8C735.69 501.43 697.03 564.29 666.42 618.09C659.33 630.54 649.92 641.71 639.18 650.4C631.23 656.83 621.74 661.25 612.67 665.07C611.6 665.52 610.38 666.13 609.1 666.78L609.043 666.809C606.413 668.134 603.165 669.77 601.08 669.8C598.918 669.82 597.11 668.718 594.982 667.422L594.93 667.39C593.4 666.46 591.82 665.5 589.95 664.83C587.63 664 585.12 663.82 582.71 664.32C579.33 665.02 577.37 666.54 576.88 668.83C576.36 671.29 577.85 673.93 581.1 676.26C581.21 676.34 581.45 676.51 581.81 676.74C580.77 677.06 579.71 677.37 578.63 677.68L578.378 677.754C577.061 678.139 575.737 678.527 574.43 678.95C567.45 681.24 562.76 684.55 560.08 689.06C558.18 692.27 557.53 696.8 560.37 699.68C562.092 701.422 564.398 701.737 565.791 701.927L565.81 701.93C571.27 702.66 576.82 703.11 582.32 703.27L582.349 703.271ZM580.267 683.058C584.013 681.975 587.885 680.856 591.47 678.73L588.61 673.9C588.85 673.76 589.03 673.74 589.03 673.74C587.5 673.85 583.76 671.63 582.66 670.16C582.92 670.06 583.31 669.94 583.86 669.82C585.24 669.53 586.71 669.63 588.06 670.11C589.358 670.569 590.599 671.323 591.912 672.121L592.01 672.18L592.03 672.192C594.554 673.729 597.3 675.4 601.17 675.41C604.56 675.36 608.32 673.46 611.64 671.78L611.651 671.775C612.797 671.197 613.883 670.649 614.85 670.24C624.3 666.27 634.21 661.64 642.71 654.76C653.99 645.64 663.87 633.92 671.3 620.86C696.14 577.19 726.32 527.52 736.94 510.14L738.99 522.32C734.18 531.12 693.81 605.01 681.49 629.58C674.955 642.63 661.442 652.215 650.576 659.922L650.55 659.94C645.227 663.705 637.499 667.76 630.018 671.686L629.99 671.7L629.852 671.773C622.195 675.79 614.296 679.934 608.66 683.94C605.947 685.867 603.65 687.774 601.616 689.463L601.51 689.55C595.43 694.59 591.3 697.89 582.49 697.66C577.18 697.5 571.82 697.06 566.55 696.36C565.88 696.27 564.75 696.11 564.37 695.73C563.87 695.22 563.99 693.48 564.92 691.92C566.9 688.59 570.48 686.16 576.18 684.29C577.291 683.92 578.424 683.592 579.554 683.265C579.766 683.203 579.978 683.142 580.19 683.08L580.267 683.058Z" fill="#1A4A67"/>
<path d="M779.14 508.28C779.14 508.28 817.79 559.52 853.69 610.76C862.11 622.77 872.66 633.18 884.59 641.1C893.37 646.93 903.24 650.47 913.07 653.56C916.76 654.72 922.28 657.61 926.12 657.3C930.83 656.92 933.61 652.96 937.71 651.05C939.47 650.23 941.44 649.9 943.37 650.11C953.78 651.27 940.65 661.43 937.51 659.95C942.29 662.2 947.58 662.69 952.68 663.85C957.78 665.01 963.05 667.06 966.26 671.48C967.77 673.55 968.66 676.7 967.07 678.65C966.17 679.75 964.75 680.13 963.41 680.44C958.12 681.66 952.77 682.61 947.38 683.28C934.15 684.93 929.6 678.26 918.29 671.73C906.61 664.98 886.01 658.49 874.34 651.76C862.04 644.68 847.68 636.26 839.7 623.49C824.13 598.58 771.89 521.38 771.89 521.38L779.14 508.28Z" fill="white"/>
<path fill-rule="evenodd" clip-rule="evenodd" d="M924.15 678.85C929.99 682.84 935.13 686.35 943.51 686.35C944.82 686.35 946.22 686.26 947.71 686.07C953.17 685.39 958.66 684.42 964.03 683.18C965.39 682.87 967.67 682.34 969.24 680.43C971.81 677.3 970.73 672.85 968.53 669.83C965.44 665.59 960.46 662.73 953.3 661.11C951.87 660.79 950.43 660.51 948.99 660.24C948.786 660.201 948.583 660.163 948.38 660.124C947.487 659.955 946.604 659.788 945.74 659.6C946.08 659.34 946.31 659.14 946.41 659.05C949.42 656.43 950.66 653.66 949.91 651.26C949.21 649.02 947.12 647.69 943.68 647.31C941.24 647.05 938.75 647.46 936.52 648.5C934.72 649.34 933.23 650.45 931.8 651.52C929.78 653.03 928.03 654.33 925.9 654.5C923.786 654.668 920.462 653.362 917.73 652.289L917.63 652.25C916.29 651.72 915.02 651.23 913.91 650.88C903.06 647.47 894.18 644.1 886.14 638.76C874.63 631.12 864.21 620.88 855.99 609.15C820.47 558.46 781.77 507.1 781.38 506.59L778.77 503.14L768.58 521.54L769.55 522.97C769.561 522.986 769.594 523.035 769.648 523.115C772.21 526.905 822.249 600.921 837.3 625C845.79 638.58 860.83 647.25 872.92 654.21C878.896 657.648 887.158 661.035 895.153 664.313L895.17 664.32L895.431 664.427C903.22 667.624 911.243 670.917 916.87 674.17C919.56 675.721 921.836 677.272 924.028 678.767L924.15 678.85ZM842.06 622.01C827.81 599.2 782.38 531.91 775.17 521.24L779.47 513.43C788.74 525.8 821.2 569.33 851.36 612.37C859.98 624.67 870.92 635.41 883 643.44C892.1 649.48 902.41 653.16 912.2 656.24C913.2 656.56 914.35 657.01 915.55 657.48C919.02 658.84 922.95 660.38 926.32 660.11C930.07 659.81 932.76 657.81 935.13 656.04C936.4 655.09 937.59 654.2 938.87 653.6C940.18 652.99 941.62 652.75 943.03 652.91C943.59 652.98 943.99 653.06 944.26 653.14C943.31 654.71 939.72 657.29 938.25 657.3C938.26 657.3 938.44 657.3 938.69 657.42L936.3 662.51C940.084 664.292 944.046 665.044 947.88 665.771L947.93 665.78C949.31 666.04 950.68 666.3 952.04 666.61C957.9 667.93 961.69 670.01 963.97 673.15C965.04 674.61 965.33 676.33 964.88 676.88C964.53 677.3 963.43 677.56 962.76 677.71C957.57 678.91 952.28 679.85 947.01 680.5C938.15 681.609 933.84 678.667 927.333 674.226L927.31 674.21C925.1 672.7 922.59 670.99 919.67 669.3C913.65 665.82 905.34 662.41 897.29 659.11C889.47 655.91 881.38 652.59 875.72 649.33L875.716 649.328C864.177 642.678 849.809 634.399 842.06 622.01Z" fill="#1A4A67"/>
<path d="M694.74 706.33C705.55 707.64 716.14 704.21 727.09 703.12C737.83 702.05 749.08 704.85 759.5 707.12C782.03 712.03 802.17 708.93 822.5 698.07C835.43 691.17 815.05 671.23 810.97 663.7C806.99 656.36 805.25 648.04 803.9 639.81C800 616.1 798.89 591.92 800.63 567.95C801.93 549.93 795.72 537.03 790.01 520.32C787.16 511.99 791.36 509.07 786.28 502.25C783.17 498.08 769.77 510.98 764.77 510.57C755.23 509.79 742.64 497.57 736.18 504.57C730.85 510.35 727.11 517.38 723.44 524.34C714.08 542.05 704.55 560.26 702.1 580.14C698.82 606.81 705.57 626.22 696.93 651.9C694.63 658.75 692.71 674 678.08 701.14C677.98 701.34 687 704.51 687.64 704.73C690.02 705.54 692.39 706.05 694.74 706.33Z" fill="#37C1D3"/>
<path fill-rule="evenodd" clip-rule="evenodd" d="M758.9 709.86C766.07 711.42 773.01 712.21 779.81 712.21C794.83 712.21 809.17 708.37 823.82 700.55C826.8 698.96 828.64 696.66 829.29 693.73C830.97 686.1 823.76 676.51 817.96 668.81C816.06 666.29 814.26 663.9 813.43 662.36C809.88 655.8 808.15 648.42 806.66 639.35C802.79 615.85 801.7 591.9 803.42 568.15C804.54 552.53 800.35 540.9 795.49 527.43C794.55 524.83 793.59 522.17 792.65 519.41C791.584 516.291 791.659 514.145 791.739 511.884L791.74 511.86L791.742 511.816C791.851 508.56 791.965 505.189 788.51 500.57C785.2 496.13 778.96 499.99 772.93 503.72L772.93 503.72C770.42 505.27 766.22 507.82 764.97 507.77C761.867 507.511 758.016 505.668 754.283 503.881L754.26 503.87L754.236 503.858C747.322 500.551 739.494 496.807 734.09 502.66C728.475 508.744 724.637 515.996 720.931 523L720.92 523.02L720.903 523.052C711.957 539.974 701.818 559.153 699.28 579.79C697.951 590.584 698.23 600.129 698.5 609.364L698.5 609.38C698.91 623.06 699.29 635.98 694.24 651C693.74 652.48 693.25 654.35 692.66 656.64C690.54 664.88 686.97 678.66 675.54 699.87L674.97 701.02L675.45 702.21C675.96 703.46 676.1 703.79 686.72 707.39C689.2 708.23 691.71 708.8 694.39 709.12C701.99 710.04 709.45 708.75 716.66 707.5C720.17 706.89 723.79 706.27 727.36 705.91C736.77 704.98 746.69 707.16 756.28 709.28L758.9 709.86ZM757.5 703.8C749.18 701.96 740.62 700.07 732.06 700.07C730.31 700.07 728.56 700.15 726.84 700.3C723.189 700.658 719.576 701.279 716.073 701.881L715.73 701.94C708.62 703.18 701.9 704.35 695.1 703.52C692.81 703.25 690.67 702.77 688.56 702.05C687.82 701.8 684.46 700.6 682.02 699.7C692.575 679.547 696.024 666.213 698.125 658.087L698.14 658.03C698.18 657.875 698.219 657.723 698.258 657.572C698.754 655.649 699.164 654.059 699.6 652.77C704.97 636.8 704.58 623.39 704.16 609.19C703.89 600.16 703.62 590.83 704.89 580.46C707.31 560.84 716.77 542.94 725.93 525.63L725.964 525.566C729.493 518.896 733.146 511.992 738.25 506.46C740.67 503.85 745.21 505.74 751.86 508.93C756.05 510.94 760.39 513.02 764.54 513.36C767.6 513.61 771.46 511.24 775.91 508.49C778.3 507.01 782.64 504.33 784.25 504.21C786.31 507.09 786.25 508.82 786.15 511.64C786.06 514.07 785.95 517.1 787.36 521.21C788.32 524.01 789.28 526.7 790.23 529.32L790.24 529.348C794.876 542.206 798.879 553.311 797.84 567.73C796.09 591.92 797.2 616.32 801.14 640.25C802.73 649.87 804.59 657.77 808.52 665.02C809.542 666.915 811.352 669.322 813.451 672.115L813.5 672.18L813.52 672.207C818.08 678.267 824.958 687.408 823.83 692.5C823.65 693.32 823.18 694.52 821.19 695.58C801.14 706.29 781.72 709.08 760.11 704.37L757.5 703.8Z" fill="#1A4A67"/>
<path d="M769.64 346.89C769.64 346.89 777.58 364.54 765.17 375.41C752.76 386.28 735.89 377.67 719.51 387.63C703.13 397.59 704.9 409.38 712.41 435.63C721.34 466.86 731.11 465.93 739.88 468.19C748.65 470.45 751.28 494.89 752.27 506.22C753.84 524.15 737.74 530.08 725.4 538.42C715.15 545.35 707.71 552.87 711.43 566.04C713.07 571.85 715.46 578.03 713.45 583.73C711.52 589.2 705.85 592.65 700.12 593.59C692.18 594.89 680.25 595.31 685 585.03C695.35 562.61 676.22 564.8 672.12 547.46C667.65 528.57 659.24 513.04 680.73 501.71C687.15 498.32 694.33 495.12 697.79 488.74C704.64 476.13 694.33 464.29 688.94 453.52C681.07 437.8 678.18 419.47 683.78 402.55C693.21 374.03 683.28 382.63 695.69 360C708.1 337.39 753.26 312.49 769.64 346.89Z" fill="#1A4A67"/>
<path d="M724.45 379.75C724.45 379.75 704.06 392.67 709.49 425.33C714.92 457.98 744.59 487.74 754.4 486.49C781.53 483.04 784.64 464.16 795.07 448.59C807.86 429.5 788.71 379.35 788.71 379.35L768.19 366.33L724.45 379.75Z" fill="white"/>
<path fill-rule="evenodd" clip-rule="evenodd" d="M706.71 425.79C711.92 457.08 740.59 489.33 753.82 489.33C754.14 489.33 754.45 489.31 754.75 489.27C777.36 486.4 784.5 473.21 791.4 460.46L791.462 460.346C793.303 456.941 795.205 453.423 797.4 450.15C810.84 430.07 792.14 380.44 791.33 378.34L791 377.47L768.6 363.26L723.62 377.07L722.94 377.38C722.04 377.95 701.04 391.69 706.71 425.79ZM712.26 424.86C707.51 396.3 723.23 384.02 725.67 382.31L767.76 369.38L786.39 381.2C788.8 387.82 803.69 430.65 792.73 447.01C790.37 450.55 788.37 454.22 786.45 457.78C779.66 470.34 773.79 481.18 754.04 483.69C747.11 484.64 717.65 457.25 712.26 424.86Z" fill="#1A4A67"/>
<path d="M754.25 367.71C754.25 367.71 767.75 372.24 779.61 391.25C791.47 410.26 804.52 418.51 795.97 442.5C792.06 453.46 788.86 463 784.88 472.56C779.96 484.39 776.28 496.66 774.17 509.31C772.39 519.97 777.64 523.26 784.32 529.93C797.56 543.15 798.05 561.46 809.75 574.23C817.74 582.95 838.18 592.51 849.55 584.98C860.47 577.74 827.9 582.58 834.36 551.34C840.82 520.1 843.02 506.85 824.16 498.18C805.3 489.5 814.31 487.21 824.24 468.2C834.17 449.19 808.58 449.42 818.68 416.33C830.34 378.14 819.77 335.57 762.7 347.34C705.61 359.11 754.25 367.71 754.25 367.71Z" fill="#1A4A67"/>
<path d="M740.35 404.06C756.73 394.1 752.76 386.27 765.17 375.41C777.58 364.55 769.64 346.89 769.64 346.89C753.26 312.49 708.1 337.38 695.69 360.02C683.28 382.65 693.21 374.05 683.78 402.57C677.28 422.23 684.22 441.84 688.94 453.54L709.27 454.94C698.47 413.92 728.04 411.55 740.35 404.06Z" fill="#1A4A67"/>
</svg>
